<?xml version="1.0" encoding="utf-8"?>
<!-- Generator: Adobe Illustrator 19.1.0, SVG Export Plug-In . SVG Version: 6.00 Build 0)  -->
<svg version="1.1" id="Layer_1" xmlns="http://www.w3.org/2000/svg" xmlns:xlink="http://www.w3.org/1999/xlink" x="0px" y="0px"
	 viewBox="0 0 535 489.9" style="enable-background:new 0 0 535 489.9;" xml:space="preserve">
<style type="text/css">
	.st0{clip-path:url(#SVGID_2_);fill:url(#SVGID_3_);}
	.st1{fill:url(#SVGID_4_);}
	.st2{fill:url(#SVGID_5_);}
	.st3{fill:url(#SVGID_6_);}
	.st4{fill:#FBB03B;}
	.st5{fill:#743D29;}
	.st6{fill:#874C2D;}
	.st7{fill:url(#SVGID_7_);}
	.st8{fill:#FBFBFB;}
	.st9{fill:#A88171;}
	.st10{fill:#7A5757;}
	.st11{clip-path:url(#SVGID_9_);fill:url(#SVGID_10_);}
	.st12{fill:#AD6B6B;}
	.st13{opacity:0.62;fill:#7A5757;}
	.st14{fill:#FFD7B3;}
	.st15{fill:#4897D2;}
	.st16{fill:url(#SVGID_11_);}
	.st17{fill:url(#SVGID_12_);}
	.st18{fill:#4897D2;stroke:#86B2D2;stroke-width:10;stroke-miterlimit:10;}
	.st19{fill:#EAC79F;}
	.st20{fill:#378D58;}
	.st21{fill:#EBEBEA;}
	.st22{fill:#9E215C;}
	.st23{fill:#D9A183;}
	.st24{fill:#D4CDBD;}
	.st25{fill:#293139;}
	.st26{fill:url(#SVGID_13_);}
	.st27{fill:#690200;}
	.st28{opacity:0.4;fill:url(#SVGID_14_);}
	.st29{opacity:8.000000e-02;fill:#3D0100;}
	.st30{opacity:0.32;fill:#540200;}
	.st31{opacity:0.52;fill:#540200;}
	.st32{opacity:0.44;fill:#990300;}
	.st33{opacity:0.23;fill:#990300;}
	.st34{opacity:0.37;fill:#990300;}
	.st35{opacity:0.54;fill:#540200;}
	.st36{fill:#540200;}
	.st37{opacity:0.58;fill:#540200;}
	.st38{opacity:0.41;fill:#540200;}
	.st39{opacity:0.91;fill:#540200;}
	.st40{fill:#0B1821;}
	.st41{fill:#FFFFFF;}
	.st42{fill:#E4B48A;}
	.st43{clip-path:url(#SVGID_16_);fill:url(#SVGID_17_);}
	.st44{fill:#AD7B7B;}
	.st45{fill:#FCEE21;}
	.st46{fill:#4D4D4D;}
	.st47{display:none;}
	.st48{display:inline;fill:#4897D2;}
	.st49{fill:#D9B082;}
	.st50{fill:#A86247;}
	.st51{fill:url(#SVGID_18_);}
	.st52{fill:#C37F5B;}
	.st53{fill:#E8C3A4;}
	.st54{display:none;fill:#C37F5B;}
	.st55{fill:#06470E;}
	.st56{fill:#DC7F5B;}
	.st57{fill:url(#SVGID_19_);}
	.st58{fill:#100F10;}
	.st59{fill:url(#SVGID_20_);}
	.st60{display:none;fill:#A86247;}
	.st61{fill:#06770E;}
	.st62{fill:url(#SVGID_21_);}
	.st63{clip-path:url(#SVGID_23_);fill:url(#SVGID_24_);}
	.st64{fill:#AD3C7B;}
	.st65{fill:url(#SVGID_25_);}
	.st66{display:none;fill:#DC7F5B;}
	.st67{fill:url(#SVGID_26_);}
	.st68{fill:url(#SVGID_27_);}
	.st69{fill:url(#SVGID_28_);}
	.st70{clip-path:url(#SVGID_30_);fill:url(#SVGID_31_);}
	.st71{opacity:0.2;fill:#854D38;}
	.st72{opacity:0.38;fill:#854D38;}
	.st73{opacity:0.45;fill:#854D38;}
	.st74{opacity:0.25;fill:#854D38;}
	.st75{opacity:0.19;fill:#854D38;}
	.st76{opacity:0.13;fill:#854D38;}
	.st77{opacity:0.3;fill:#854D38;}
	.st78{opacity:0.64;fill:#C77454;}
	.st79{fill:url(#SVGID_32_);}
	.st80{fill:url(#SVGID_33_);}
	.st81{fill:#3D2C00;}
	.st82{fill:#533B31;}
	.st83{fill:#372117;}
	.st84{fill:#442C22;}
	.st85{fill:#2A170F;}
	.st86{fill:#301D15;}
	.st87{fill:#523691;}
	.st88{fill:#EBEFF0;}
	.st89{fill:#803B31;}
	.st90{clip-path:url(#SVGID_35_);fill:url(#SVGID_36_);}
	.st91{fill:#240569;}
	.st92{fill:#553D8C;}
	.st93{fill:url(#SVGID_37_);}
	.st94{fill:url(#SVGID_38_);}
	.st95{clip-path:url(#SVGID_40_);fill:url(#SVGID_41_);}
	.st96{fill:url(#SVGID_42_);}
	.st97{fill:url(#SVGID_43_);}
	.st98{fill:url(#SVGID_44_);}
	.st99{fill:#2E5961;}
	.st100{clip-path:url(#SVGID_46_);fill:url(#SVGID_47_);}
	.st101{fill:url(#SVGID_48_);}
	.st102{display:none;fill:#743D29;}
	.st103{fill:url(#SVGID_49_);}
	.st104{fill:#402416;}
	.st105{opacity:0.68;fill:#874C2D;}
	.st106{fill:#473333;}
	.st107{clip-path:url(#SVGID_51_);fill:url(#SVGID_52_);}
	.st108{fill:#96512E;}
	.st109{opacity:0.64;fill:#473333;}
	.st110{fill:url(#SVGID_53_);}
	.st111{fill:url(#SVGID_54_);}
	.st112{fill:#285778;}
	.st113{fill:#D9EFFF;}
	.st114{clip-path:url(#SVGID_56_);fill:url(#SVGID_57_);}
	.st115{clip-path:url(#SVGID_59_);}
	.st116{fill:url(#SVGID_60_);}
	.st117{fill:#E7B500;}
	.st118{fill:url(#SVGID_61_);}
	.st119{opacity:0.4;fill:url(#SVGID_62_);}
	.st120{fill:#EFCDB8;}
	.st121{opacity:0.4;fill:url(#SVGID_63_);}
	.st122{fill:#73B0FF;}
	.st123{fill:#4684D4;}
	.st124{fill:#2B170F;}
	.st125{fill:#CCA24F;}
	.st126{fill:url(#SVGID_64_);}
	.st127{fill:#EBBB5B;}
	.st128{opacity:0.3;fill:#C79F4D;}
	.st129{opacity:0.76;fill:#FFD582;}
	.st130{opacity:0.5;fill:#FFD582;}
	.st131{opacity:0.33;fill:#FFD582;}
	.st132{fill:#DBAB48;}
	.st133{fill:#D42D7B;}
	.st134{fill:#471400;}
	.st135{fill:url(#SVGID_65_);}
	.st136{fill:url(#SVGID_66_);}
	.st137{fill:#4A2517;}
	.st138{fill:#80472B;}
	.st139{fill:#6B3C24;}
	.st140{fill:#7E919E;}
	.st141{fill:#470E0E;}
	.st142{clip-path:url(#SVGID_68_);fill:url(#SVGID_69_);}
	.st143{fill:#800202;}
	.st144{opacity:0.39;fill:#800202;}
	.st145{opacity:0.44;fill:#6B3C24;}
	.st146{fill:url(#SVGID_70_);}
	.st147{fill:url(#SVGID_71_);}
	.st148{clip-path:url(#SVGID_73_);fill:url(#SVGID_74_);}
	.st149{display:inline;}
	.st150{fill:url(#SVGID_75_);}
	.st151{fill:#632F96;}
	.st152{fill:#D6CA76;}
	.st153{fill:url(#SVGID_76_);}
	.st154{fill:url(#SVGID_77_);}
	.st155{fill:#470000;}
	.st156{fill:url(#SVGID_78_);}
	.st157{fill:url(#SVGID_79_);}
	.st158{clip-path:url(#SVGID_81_);fill:url(#SVGID_82_);}
	.st159{fill:#A10043;}
	.st160{fill:#212121;}
	.st161{fill:url(#SVGID_83_);}
	.st162{fill:url(#SVGID_84_);}
	.st163{fill:#522B1D;}
	.st164{fill:url(#SVGID_85_);}
	.st165{fill:#704532;}
	.st166{fill:#59321E;}
	.st167{fill:#21110C;}
	.st168{clip-path:url(#SVGID_87_);fill:url(#SVGID_88_);}
	.st169{opacity:0.61;fill:#743D29;}
	.st170{opacity:0.24;fill:url(#);}
	.st171{fill:url(#);}
	.st172{fill:url(#SVGID_89_);}
	.st173{fill:#754312;}
	.st174{fill:url(#SVGID_90_);}
	.st175{clip-path:url(#SVGID_92_);fill:url(#SVGID_93_);}
	.st176{fill:#C78383;}
	.st177{opacity:0.36;fill:#743D29;}
	.st178{fill:#1B1464;}
	.st179{fill:#7A4613;}
	.st180{opacity:0.58;fill:#995818;}
	.st181{fill:#995818;}
	.st182{opacity:0.58;fill:#754312;}
	.st183{opacity:0.21;fill:#743D29;}
	.st184{fill:#1C1A19;}
	.st185{fill:url(#SVGID_94_);}
	.st186{fill:#A64521;}
	.st187{fill:url(#SVGID_95_);}
	.st188{fill:#71A88E;}
	.st189{fill:#84C4B0;}
	.st190{fill:#452418;}
	.st191{fill:#22A2D4;}
	.st192{clip-path:url(#SVGID_97_);fill:url(#SVGID_98_);}
	.st193{fill:#B87676;}
	.st194{fill:#F9BC93;}
	.st195{fill:none;stroke:#1C1A19;stroke-width:6;stroke-miterlimit:10;}
	.st196{fill:url(#SVGID_99_);}
	.st197{clip-path:url(#SVGID_101_);fill:url(#SVGID_102_);}
	.st198{fill:url(#SVGID_103_);}
	.st199{clip-path:url(#SVGID_105_);fill:url(#SVGID_106_);}
	.st200{fill:url(#SVGID_107_);}
	.st201{clip-path:url(#SVGID_109_);fill:url(#SVGID_110_);}
	.st202{fill:url(#SVGID_111_);}
	.st203{clip-path:url(#SVGID_113_);fill:url(#SVGID_114_);}
	.st204{fill:none;stroke:#000000;stroke-miterlimit:10;}
	.st205{fill:url(#SVGID_115_);}
	.st206{clip-path:url(#SVGID_117_);fill:url(#SVGID_118_);}
	.st207{fill:url(#SVGID_119_);}
	.st208{clip-path:url(#SVGID_121_);fill:url(#SVGID_122_);}
	.st209{fill:url(#SVGID_123_);}
	.st210{clip-path:url(#SVGID_125_);fill:url(#SVGID_126_);}
	.st211{fill:url(#SVGID_127_);}
	.st212{clip-path:url(#SVGID_129_);fill:url(#SVGID_130_);}
	.st213{fill:url(#SVGID_131_);}
	.st214{clip-path:url(#SVGID_133_);fill:url(#SVGID_134_);}
	.st215{fill:#381E1E;}
	.st216{fill:url(#SVGID_135_);}
	.st217{fill:#99725C;}
	.st218{fill:#804545;}
	.st219{fill:#593030;}
	.st220{fill:url(#SVGID_136_);}
	.st221{display:none;fill:#381E1E;}
	.st222{fill:#CF32AD;}
	.st223{clip-path:url(#SVGID_138_);fill:url(#SVGID_139_);}
	.st224{fill:url(#SVGID_140_);}
	.st225{fill:#312D2F;}
	.st226{fill:#343032;}
	.st227{fill:url(#SVGID_141_);}
	.st228{fill:url(#SVGID_142_);}
	.st229{fill:#945100;}
	.st230{fill:url(#SVGID_143_);}
	.st231{fill:#171F82;}
	.st232{fill:none;stroke:#121969;stroke-miterlimit:10;}
</style>
<g>
	<path class="st184" d="M159.5,158.7c0,0-29.1,51.6-31.3,74.5c-2.2,22.9,40.9,0.8,40.9,0.8L159.5,158.7z"/>
	<linearGradient id="SVGID_2_" gradientUnits="userSpaceOnUse" x1="273.047" y1="303.0811" x2="273.047" y2="448.8639">
		<stop  offset="0" style="stop-color:#D6AA81"/>
		<stop  offset="0.6084" style="stop-color:#FFCEAA"/>
	</linearGradient>
	<path style="fill:url(#SVGID_2_);" d="M345,448.9H204.2c0,0,0-6.7,0-60.6c0-52.1-11.1-85.2-11.1-85.2L353,307
		c0,0-7.9,42.2-7.9,81.2S345,448.9,345,448.9z"/>
	<g>
		<path class="st186" d="M392.3,213.9c0,0,3.4-23.1,6.6-45.8c2.4-17-16.1-36.5-15.3-43.1c1.8-15.2-10.7-53.5-42.5-63.3
			c-31.7-9.8-62.8,36.7-74,43.5c-11.3,6.8-113.3-21-111.2,33.7s3.8,73.5,3.8,73.5l8.2,35.3l144.2,23.1l75-34.7L392.3,213.9z"/>
		<linearGradient id="SVGID_3_" gradientUnits="userSpaceOnUse" x1="152.1447" y1="244.083" x2="399.3871" y2="244.083">
			<stop  offset="0" style="stop-color:#D6AA81"/>
			<stop  offset="0.3151" style="stop-color:#FFCEAA"/>
			<stop  offset="0.7203" style="stop-color:#FFCEAA"/>
			<stop  offset="1" style="stop-color:#D6AA81"/>
		</linearGradient>
		<path style="fill:url(#SVGID_3_);" d="M365.9,134.5c0,0-40.8-17-85.8-17c-39,0-92.7,6.3-94.1,28c0.6,42.1-11,96.6-11,96.6
			s-4.4-32.1-15.4-29.8s-13.4,38.9,16.7,67.3l0,0c0,0,2.1,19.7,16.8,35.9c15.5,17,46.1,45.1,50.4,48.9c4.3,3.8,35.1,10.2,56,3.3
			c20.9-6.9,51.9-47.3,55.2-52.1c3.3-4.8,13.1-19.4,15.7-34.1c0,0,46.3-51.5,21.8-67.5c-12-7.9-21,29.5-21,29.5s-10-49.2-5-73
			S378.1,140.1,365.9,134.5z"/>
	</g>
	<g>
		<path class="st186" d="M347.9,176.2c-4.8-1.1-9.5-2.3-14.5-2.1c-11.8-1.2-23.6-2.5-35.5-3.7c-4.4-0.5-8.3,7.7-0.1,8
			c11.9,0.3,23.8,1,35.6,1.7c13.7,1.6,24.8,4.7,29,15.3C363.9,183.1,360.6,179.2,347.9,176.2z"/>
		<path class="st8" d="M247.7,209.8c0.6,10.9-6.4,17.7-14.5,14c2.3-1.9,4.5-3.8,5.5-6.9c0.8-2.5,1.9-5.3,0.5-7.4
			c-1.9-2.9-4.2,1.1-6.4,0.5c-2.4-0.8-3-3-3.6-5.2c-0.6-3.4,5.3-2.6,3.8-6.5c1.2-1.4,2.9-0.8,4.3-1.1c0,0,0.1,0,0.1,0
			c0.6,1.4,1.7,1.6,3,1.5c0,0,0,0,0,0C242.9,202.5,245.3,206.1,247.7,209.8z"/>
		<path class="st8" d="M328.5,195c4.1-0.6,7.6,1.1,10.7,3.5c4.8,3.8,6.9,9.3,5.2,15.1c-1.6,5.6-6.4,8.1-12.1,8.1
			c3.6-4.5,7.2-9,4.5-16.6c-1.2,2.8-3.5,3-5.3,4.2c-3.6-1.3-3.2-4.9-4.1-7.8C331.4,199.9,334.9,198.3,328.5,195z"/>
		<path class="st188" d="M232.8,210.1c2.2,0.5,4.5-3.5,6.4-0.5c1.4,2.1,0.3,4.9-0.5,7.4c-1,3.1-3.3,5-5.5,6.9
			c-5.1,0-10.2-0.1-15.3-0.1c-0.4-0.2-0.9-0.2-1.3-0.1c0,0,0,0.1,0,0.1c-2.9-5.4-6.9-10.6-3.5-17.4c1.5,2.8,3.2,1,4.9,0.3
			c-1,6.3-0.2,11.9,7.3,12.5C230.7,219.4,233.4,215.9,232.8,210.1z"/>
		<path class="st188" d="M331.6,209.2c1.8-1.2,4-1.4,5.3-4.2c2.7,7.6-0.9,12.1-4.5,16.6c-5,0.3-9.9,0.6-14.9,0.8
			c-3.8-2.8-7.7-5.4-7.3-11.1c2.1-0.8,1.9-6.3,5.9-3.1c-0.4,5.4,2.2,8.6,7.1,9C328.4,217.8,330.4,213.8,331.6,209.2z"/>
		<path class="st8" d="M310.1,211.3c-0.4,5.7,3.5,8.4,7.3,11.1c-6.6,1.1-15.2-3.4-15.9-8.5c-1.3-8.6,3.4-15.3,12.1-17.1
			C311.7,201.5,308.3,205.7,310.1,211.3z"/>
		<path class="st8" d="M213,206.2c-3.5,6.8,0.6,12,3.5,17.4c-2.5,0-5,0.1-7.6,0.1c-6.7-14.6-6.6-14.7,2.3-24.5
			c0.5-0.5,0.5-1.4,0.7-2.1c0,0-0.1,0-0.1,0c1.8,0.1,3.5,0,4.7-1.5c0.9,0,1.8,0,2.8,0c0.5,0,1,0.1,1.5,0.1c0,0.4,0,0.8,0,1.2
			C217.2,199,214.2,201.8,213,206.2z"/>
		<path class="st189" d="M310.1,211.3c-1.8-5.6,1.6-9.8,3.5-14.4c0,0-0.2,0.1-0.2,0.1c1.5,0.1,3-0.1,3.9-1.7l0.4,0.2
			c0,0,0.3-0.4,0.3-0.4c0.4,0,0.9-0.1,1.3-0.3c3.1,0,6.2,0.1,9.3,0.1c6.4,3.3,2.8,4.9-1,6.5c-5.4-0.6-9.7,0.9-11.5,6.8
			C312,205.1,312.2,210.5,310.1,211.3z"/>
		<path class="st8" d="M212,197.1c-0.2,0.7-0.3,1.6-0.7,2.1c-8.9,9.8-9,9.9-2.3,24.5c-6.6-2.3-8.5-8-7.3-14.1
			C202.8,204,203.6,196.8,212,197.1z"/>
		<path class="st8" d="M247.7,209.8c-2.4-3.7-4.8-7.3-7.3-11C247.1,199.4,249.1,203.4,247.7,209.8z"/>
		<path class="st190" d="M232.8,210.1c0.6,5.9-2.1,9.4-7.6,9c-7.4-0.5-8.3-6.1-7.3-12.5c3.8-0.5,6.9-5.8,11.3-1.7
			C229.8,207.1,230.4,209.2,232.8,210.1z"/>
		<path class="st189" d="M229.2,204.9c-4.4-4-7.5,1.2-11.3,1.7c-1.7,0.7-3.4,2.5-4.9-0.3c1.2-4.4,4.1-7.2,7.9-9.3
			c4.1-0.3,8.2-0.2,12.2,1.4C234.6,202.3,228.6,201.4,229.2,204.9z"/>
		<path class="st190" d="M316,208.3c1.8-6,6.1-7.5,11.5-6.8c0.8,2.9,0.4,6.5,4.1,7.8c-1.2,4.6-3.2,8.5-8.5,8
			C318.2,216.8,315.6,213.6,316,208.3z"/>
		<path class="st186" d="M206.2,176c4.8-0.9,9.6-1.9,14.6-1.6c11.9-0.8,23.7-1.6,35.6-2.4c4.4-0.3,8,8-0.1,8
			c-11.9-0.1-23.8,0.1-35.7,0.4c-13.8,1.1-24.9,3.8-29.6,14.3C189.9,182.4,193.4,178.6,206.2,176z"/>
	</g>
	<g>
		<path class="st191" d="M514.6,474.2c-2-11.4-5.7-22.5-16.9-28.8c-25.6-14.4-50.9-29.6-79.5-37.8L345.1,382c0,0-15,33-70.2,33
			c-76.3,0-69.1-26.3-70.7-31.2c-4.6,2.2-59.6,21.3-92.7,34.2c-35.4,18-72.8,34.3-72.1,83.6c-1.7,13.1,482.4,13.8,478-11.6
			C516.4,484.6,515.5,479.4,514.6,474.2z"/>
		<path class="st191" d="M189.8,382.6l-0.1-0.5C189.7,382.1,189.7,382.3,189.8,382.6z"/>
		<path class="st191" d="M360,382.4c0.1-0.3,0.1-0.4,0.1-0.4L360,382.4z"/>
	</g>
	<g>
		<g>
			<path class="st10" d="M224.4,300.6c0,0,42.6,34.4,100.6,0C325.1,300.6,272.5,385.3,224.4,300.6z"/>
			<g>
				<defs>
					<path id="SVGID_96_" d="M224.4,300.6c0,0,42.4,27,100.6,0C325.1,300.6,272.5,385.3,224.4,300.6z"/>
				</defs>
				<clipPath id="SVGID_4_">
					<use xlink:href="#SVGID_96_"  style="overflow:visible;"/>
				</clipPath>
				<linearGradient id="SVGID_5_" gradientUnits="userSpaceOnUse" x1="233.3186" y1="321.6558" x2="314.9354" y2="321.6558">
					<stop  offset="0" style="stop-color:#D1D1D1"/>
					<stop  offset="0.2342" style="stop-color:#FFFFFF"/>
					<stop  offset="0.7592" style="stop-color:#FFFFFF"/>
					<stop  offset="1" style="stop-color:#D1D1D1"/>
				</linearGradient>
				<rect x="233.3" y="303.3" style="clip-path:url(#SVGID_4_);fill:url(#SVGID_5_);" width="81.6" height="36.7"/>
			</g>
			<path class="st193" d="M271.9,339.2c-0.3,0-0.5,0-0.7,0c-17.3-0.4-33.3-13.2-47.4-38.1c0,0-0.4-1.3-0.1-1.5
				c0.4-0.2,1.3,0.3,1.3,0.3c0.4,0.3,43.1,17.5,99.7-0.1c0,0,0.7-0.6,1.2-0.3c0.5,0.3,0,1.5,0,1.5
				C325.5,301.5,301.8,339.2,271.9,339.2z M227.2,303.7c13.3,22,28.1,26.3,43.9,26.6c0.2,0,0.5,0,0.7,0c24,0,44-18,50.3-27
				c-30.1,13.5-53.5,13.2-69.4,9.4C240.5,309.7,231.7,306.6,227.2,303.7z"/>
		</g>
		<path class="st13" d="M274.7,322.4c-23.8,0-41.3-12.5-41.5-12.7l0.4-0.6c0.4,0.3,40.5,28.2,83.5-0.7v0.3
			C300,319,287.1,322.4,274.7,322.4z"/>
	</g>
	<path class="st194" d="M255.7,259.1c-5.7,11.2-0.6,17.2,7.3,18.2c8.3,1.1,16.6-4.4,24.8,0.4c1.9,1.1,5.5-2.6,6.3-4.4
		c1.1-2.5-0.2-7.2-1.1-11.5c1.5,4.7,3.7,8.1,1.9,12.3c-1.6,3.7-5.6,5.2-8.5,4.2c-5.3-1.9-10.5,1.9-15.5,4.3
		c-6.4,3.1-17.9-4.9-19.4-14.7C250.3,260.9,252.1,259.1,255.7,259.1L255.7,259.1z"/>
	<g>
		<path class="st184" d="M275.8,39.1c-142.9,0-118.7,128.9-118.7,128.9c121.7-43.3,241.8,0,241.8,0S418.5,39.1,275.8,39.1z
			 M240.4,140h-2c0,0,9.3-32.3,40.3-32.3s38.3,32.2,38.3,32.2C275.8,133.9,240.4,140,240.4,140z"/>
	</g>
	<g>
		<path class="st195" d="M363,227.2c0,3.3-2.7,6-6,6h-64.8c-3.3,0-6-2.7-6-6v-41.8c0-3.3,2.7-6,6-6H357c3.3,0,6,2.7,6,6V227.2z"/>
	</g>
	<g>
		<path class="st195" d="M262.8,227.2c0,3.3-2.7,6-6,6H192c-3.3,0-6-2.7-6-6v-41.8c0-3.3,2.7-6,6-6h64.8c3.3,0,6,2.7,6,6V227.2z"/>
	</g>
	<path class="st195" d="M264,194.9c0,0,11.8-6.5,21.4,0"/>
	<g>
		<line class="st5" x1="362.5" y1="191.4" x2="396.1" y2="217.3"/>
		<path class="st184" d="M395.9,217.3c0,0-6.1-4.2-3.5-2.8c2.7,1.5-4.8-1.7-4.8-1.7L362,199v-13L395.9,217.3L395.9,217.3z"/>
	</g>
	<g>
		<line class="st5" x1="186" y1="191.4" x2="152.4" y2="217.3"/>
		<path class="st184" d="M152.4,217.3c0,0,7.3-5,4.6-3.6c-2.7,1.5,4.7-1.5,4.7-1.5L186,199v-13L152.4,217.3L152.4,217.3z"/>
	</g>
</g>
</svg>
