<?xml version="1.0" encoding="utf-8"?>
<!-- Generator: Adobe Illustrator 19.1.0, SVG Export Plug-In . SVG Version: 6.00 Build 0)  -->
<svg version="1.1" id="Layer_1" xmlns="http://www.w3.org/2000/svg" xmlns:xlink="http://www.w3.org/1999/xlink" x="0px" y="0px"
	 viewBox="0 0 535 489.9" style="enable-background:new 0 0 535 489.9;" xml:space="preserve">
<style type="text/css">
	.st0{clip-path:url(#SVGID_2_);fill:url(#SVGID_3_);}
	.st1{fill:url(#SVGID_4_);}
	.st2{fill:url(#SVGID_5_);}
	.st3{fill:url(#SVGID_6_);}
	.st4{fill:#FBB03B;}
	.st5{fill:#743D29;}
	.st6{fill:#874C2D;}
	.st7{fill:url(#SVGID_7_);}
	.st8{fill:#FBFBFB;}
	.st9{fill:#A88171;}
	.st10{fill:#7A5757;}
	.st11{clip-path:url(#SVGID_9_);fill:url(#SVGID_10_);}
	.st12{fill:#AD6B6B;}
	.st13{opacity:0.62;fill:#7A5757;}
	.st14{fill:#FFD7B3;}
	.st15{fill:#4897D2;}
	.st16{fill:url(#SVGID_11_);}
	.st17{fill:url(#SVGID_12_);}
	.st18{fill:#4897D2;stroke:#86B2D2;stroke-width:10;stroke-miterlimit:10;}
	.st19{fill:#EAC79F;}
	.st20{fill:#378D58;}
	.st21{fill:#EBEBEA;}
	.st22{fill:#9E215C;}
	.st23{fill:#D9A183;}
	.st24{fill:#D4CDBD;}
	.st25{fill:#293139;}
	.st26{fill:url(#SVGID_13_);}
	.st27{fill:#690200;}
	.st28{opacity:0.4;fill:url(#SVGID_14_);}
	.st29{opacity:8.000000e-02;fill:#3D0100;}
	.st30{opacity:0.32;fill:#540200;}
	.st31{opacity:0.52;fill:#540200;}
	.st32{opacity:0.44;fill:#990300;}
	.st33{opacity:0.23;fill:#990300;}
	.st34{opacity:0.37;fill:#990300;}
	.st35{opacity:0.54;fill:#540200;}
	.st36{fill:#540200;}
	.st37{opacity:0.58;fill:#540200;}
	.st38{opacity:0.41;fill:#540200;}
	.st39{opacity:0.91;fill:#540200;}
	.st40{fill:#0B1821;}
	.st41{fill:#FFFFFF;}
	.st42{fill:#E4B48A;}
	.st43{clip-path:url(#SVGID_16_);fill:url(#SVGID_17_);}
	.st44{fill:#AD7B7B;}
	.st45{fill:#FCEE21;}
	.st46{fill:#4D4D4D;}
	.st47{display:none;}
	.st48{display:inline;fill:#4897D2;}
	.st49{fill:#D9B082;}
	.st50{fill:#A86247;}
	.st51{fill:url(#SVGID_18_);}
	.st52{fill:#C37F5B;}
	.st53{fill:#E8C3A4;}
	.st54{display:none;fill:#C37F5B;}
	.st55{fill:#06470E;}
	.st56{fill:#DC7F5B;}
	.st57{fill:url(#SVGID_19_);}
	.st58{fill:#100F10;}
	.st59{fill:url(#SVGID_20_);}
	.st60{display:none;fill:#A86247;}
	.st61{fill:#06770E;}
	.st62{fill:url(#SVGID_21_);}
	.st63{clip-path:url(#SVGID_23_);fill:url(#SVGID_24_);}
	.st64{fill:#AD3C7B;}
	.st65{fill:url(#SVGID_25_);}
	.st66{display:none;fill:#DC7F5B;}
	.st67{fill:url(#SVGID_26_);}
	.st68{fill:url(#SVGID_27_);}
	.st69{fill:url(#SVGID_28_);}
	.st70{clip-path:url(#SVGID_30_);fill:url(#SVGID_31_);}
	.st71{opacity:0.2;fill:#854D38;}
	.st72{opacity:0.38;fill:#854D38;}
	.st73{opacity:0.45;fill:#854D38;}
	.st74{opacity:0.25;fill:#854D38;}
	.st75{opacity:0.19;fill:#854D38;}
	.st76{opacity:0.13;fill:#854D38;}
	.st77{opacity:0.3;fill:#854D38;}
	.st78{opacity:0.64;fill:#C77454;}
	.st79{fill:url(#SVGID_32_);}
	.st80{fill:url(#SVGID_33_);}
	.st81{fill:#3D2C00;}
	.st82{fill:#533B31;}
	.st83{fill:#372117;}
	.st84{fill:#442C22;}
	.st85{fill:#2A170F;}
	.st86{fill:#301D15;}
	.st87{fill:#523691;}
	.st88{fill:#EBEFF0;}
	.st89{fill:#803B31;}
	.st90{clip-path:url(#SVGID_35_);fill:url(#SVGID_36_);}
	.st91{fill:#240569;}
	.st92{fill:#553D8C;}
	.st93{fill:url(#SVGID_37_);}
	.st94{fill:url(#SVGID_38_);}
	.st95{clip-path:url(#SVGID_40_);fill:url(#SVGID_41_);}
	.st96{fill:url(#SVGID_42_);}
	.st97{fill:url(#SVGID_43_);}
	.st98{fill:url(#SVGID_44_);}
	.st99{fill:#2E5961;}
	.st100{clip-path:url(#SVGID_46_);fill:url(#SVGID_47_);}
	.st101{fill:url(#SVGID_48_);}
	.st102{display:none;fill:#743D29;}
	.st103{fill:url(#SVGID_49_);}
	.st104{fill:#402416;}
	.st105{opacity:0.68;fill:#874C2D;}
	.st106{fill:#473333;}
	.st107{clip-path:url(#SVGID_51_);fill:url(#SVGID_52_);}
	.st108{fill:#96512E;}
	.st109{opacity:0.64;fill:#473333;}
	.st110{fill:url(#SVGID_53_);}
	.st111{fill:url(#SVGID_54_);}
	.st112{fill:#285778;}
	.st113{fill:#D9EFFF;}
	.st114{clip-path:url(#SVGID_56_);fill:url(#SVGID_57_);}
	.st115{clip-path:url(#SVGID_59_);}
	.st116{fill:url(#SVGID_60_);}
	.st117{fill:#E7B500;}
	.st118{fill:url(#SVGID_61_);}
	.st119{opacity:0.4;fill:url(#SVGID_62_);}
	.st120{fill:#EFCDB8;}
	.st121{opacity:0.4;fill:url(#SVGID_63_);}
	.st122{fill:#73B0FF;}
	.st123{fill:#4684D4;}
	.st124{fill:#2B170F;}
	.st125{fill:#CCA24F;}
	.st126{fill:url(#SVGID_64_);}
	.st127{fill:#EBBB5B;}
	.st128{opacity:0.3;fill:#C79F4D;}
	.st129{opacity:0.76;fill:#FFD582;}
	.st130{opacity:0.5;fill:#FFD582;}
	.st131{opacity:0.33;fill:#FFD582;}
	.st132{fill:#DBAB48;}
	.st133{fill:#D42D7B;}
	.st134{fill:#471400;}
	.st135{fill:url(#SVGID_65_);}
	.st136{fill:url(#SVGID_66_);}
	.st137{fill:#4A2517;}
	.st138{fill:#80472B;}
	.st139{fill:#6B3C24;}
	.st140{fill:#7E919E;}
	.st141{fill:#470E0E;}
	.st142{clip-path:url(#SVGID_68_);fill:url(#SVGID_69_);}
	.st143{fill:#800202;}
	.st144{opacity:0.39;fill:#800202;}
	.st145{opacity:0.44;fill:#6B3C24;}
	.st146{fill:url(#SVGID_70_);}
	.st147{fill:url(#SVGID_71_);}
	.st148{clip-path:url(#SVGID_73_);fill:url(#SVGID_74_);}
	.st149{display:inline;}
	.st150{fill:url(#SVGID_75_);}
	.st151{fill:#632F96;}
	.st152{fill:#D6CA76;}
	.st153{fill:url(#SVGID_76_);}
	.st154{fill:url(#SVGID_77_);}
	.st155{fill:#470000;}
	.st156{fill:url(#SVGID_78_);}
	.st157{fill:url(#SVGID_79_);}
	.st158{clip-path:url(#SVGID_81_);fill:url(#SVGID_82_);}
	.st159{fill:#A10043;}
	.st160{fill:#212121;}
	.st161{fill:url(#SVGID_83_);}
	.st162{fill:url(#SVGID_84_);}
	.st163{fill:#522B1D;}
	.st164{fill:url(#SVGID_85_);}
	.st165{fill:#704532;}
	.st166{fill:#59321E;}
	.st167{fill:#21110C;}
	.st168{clip-path:url(#SVGID_87_);fill:url(#SVGID_88_);}
	.st169{opacity:0.61;fill:#743D29;}
	.st170{opacity:0.24;fill:url(#);}
	.st171{fill:url(#);}
	.st172{fill:url(#SVGID_89_);}
	.st173{fill:#754312;}
	.st174{fill:url(#SVGID_90_);}
	.st175{clip-path:url(#SVGID_92_);fill:url(#SVGID_93_);}
	.st176{fill:#C78383;}
	.st177{opacity:0.36;fill:#743D29;}
	.st178{fill:#1B1464;}
	.st179{fill:#7A4613;}
	.st180{opacity:0.58;fill:#995818;}
	.st181{fill:#995818;}
	.st182{opacity:0.58;fill:#754312;}
	.st183{opacity:0.21;fill:#743D29;}
	.st184{fill:#1C1A19;}
	.st185{fill:url(#SVGID_94_);}
	.st186{fill:#A64521;}
	.st187{fill:url(#SVGID_95_);}
	.st188{fill:#71A88E;}
	.st189{fill:#84C4B0;}
	.st190{fill:#452418;}
	.st191{fill:#22A2D4;}
	.st192{clip-path:url(#SVGID_97_);fill:url(#SVGID_98_);}
	.st193{fill:#B87676;}
	.st194{fill:#F9BC93;}
	.st195{fill:none;stroke:#1C1A19;stroke-width:6;stroke-miterlimit:10;}
	.st196{fill:url(#SVGID_99_);}
	.st197{clip-path:url(#SVGID_101_);fill:url(#SVGID_102_);}
	.st198{fill:url(#SVGID_103_);}
	.st199{clip-path:url(#SVGID_105_);fill:url(#SVGID_106_);}
	.st200{fill:url(#SVGID_107_);}
	.st201{clip-path:url(#SVGID_109_);fill:url(#SVGID_110_);}
	.st202{fill:url(#SVGID_111_);}
	.st203{clip-path:url(#SVGID_113_);fill:url(#SVGID_114_);}
	.st204{fill:none;stroke:#000000;stroke-miterlimit:10;}
	.st205{fill:url(#SVGID_115_);}
	.st206{clip-path:url(#SVGID_117_);fill:url(#SVGID_118_);}
	.st207{fill:url(#SVGID_119_);}
	.st208{clip-path:url(#SVGID_121_);fill:url(#SVGID_122_);}
	.st209{fill:url(#SVGID_123_);}
	.st210{clip-path:url(#SVGID_125_);fill:url(#SVGID_126_);}
	.st211{fill:url(#SVGID_127_);}
	.st212{clip-path:url(#SVGID_129_);fill:url(#SVGID_130_);}
	.st213{fill:url(#SVGID_131_);}
	.st214{clip-path:url(#SVGID_133_);fill:url(#SVGID_134_);}
	.st215{fill:#381E1E;}
	.st216{fill:url(#SVGID_135_);}
	.st217{fill:#99725C;}
	.st218{fill:#804545;}
	.st219{fill:#593030;}
	.st220{fill:url(#SVGID_136_);}
	.st221{display:none;fill:#381E1E;}
	.st222{fill:#CF32AD;}
	.st223{clip-path:url(#SVGID_138_);fill:url(#SVGID_139_);}
	.st224{fill:url(#SVGID_140_);}
	.st225{fill:#312D2F;}
	.st226{fill:#343032;}
	.st227{fill:url(#SVGID_141_);}
	.st228{fill:url(#SVGID_142_);}
	.st229{fill:#945100;}
	.st230{fill:url(#SVGID_143_);}
	.st231{fill:#171F82;}
	.st232{fill:none;stroke:#121969;stroke-miterlimit:10;}
</style>
<g>
	<path class="st134" d="M418.1,450.7c0,0-29.5-67.1-27.1-135.6c2.4-68.5,32.9-211.9-32.4-235.3s-172.3,33.9-172.3,33.9l-17-4.5
		c0,0-20.6,50.7-22.5,180.1s-26.2,153.4-26.2,153.4L418.1,450.7z"/>
	<linearGradient id="SVGID_2_" gradientUnits="userSpaceOnUse" x1="274.2386" y1="277.8576" x2="274.2386" y2="457.9981">
		<stop  offset="0" style="stop-color:#87613D"/>
		<stop  offset="1" style="stop-color:#A17448"/>
	</linearGradient>
	<path style="fill:url(#SVGID_2_);" d="M338.2,458h-125c0,0,0-41.1,0-95c0-52.1-5.1-85.2-5.1-85.2l132.4,3.9c0,0-2.3,42.2-2.3,81.2
		S338.2,458,338.2,458z"/>
	<g>
		<path class="st134" d="M399.7,163.9c0,0,0.9-31.5-18.3-73.2C370.9,67.9,330.1,39.4,274,39.5c-48.8,0.1-97.4,22.5-109.3,70.2
			c-13.3,52.9-13.6,96.9-13.6,96.9l27.7,15.9l129,23.1l67.1-34.7L399.7,163.9z"/>
		<linearGradient id="SVGID_3_" gradientUnits="userSpaceOnUse" x1="164.6868" y1="222.9252" x2="381.3582" y2="222.9252">
			<stop  offset="0" style="stop-color:#87613D"/>
			<stop  offset="0.2161" style="stop-color:#A17448"/>
			<stop  offset="0.7724" style="stop-color:#A17448"/>
			<stop  offset="1" style="stop-color:#87613D"/>
		</linearGradient>
		<path style="fill:url(#SVGID_3_);" d="M288.7,102.4c-59.7,5-94.8-18.2-94.2,23.9c0.5,42.1-3.5,79.8-9,79.5
			c-3.4-0.1-4.3-21.1-14.1-18.7c-9.8,2.4-12,38.9,14.9,67.3l0,0c0,0,7,20.6,18.2,37.4c12.2,18.4,38.1,43.6,41.9,47.3
			c3.8,3.8,31.4,10.2,50.1,3.3s47.5-49.2,50.4-54.1c2.9-4.8,10.9-18.2,13-32.2c0,0,36.2-53.1,14.3-69.2c-10.7-7.9-10,15.2-12.2,15.1
			c-8.4-0.5-14.6-42.8-13.2-66.1C350.4,111.5,328.7,99,288.7,102.4z"/>
	</g>
	<g>
		<path class="st137" d="M352.7,170.9c-5-1.1-9.9-2.2-15.1-2c-12.3-1.2-24.7-2.3-37-3.5c-4.5-0.4-8.7,4.8-0.2,5
			c12.4,0.2,24.8,0.9,37.2,1.5c14.3,1.5,25.9,3.9,30.5,18.1C369.5,177.7,366,173.7,352.7,170.9z"/>
		<path class="st8" d="M256.3,202.6c0.7,10.9-6.6,17.7-15.2,14c2.4-1.9,4.7-3.8,5.8-6.9c0.8-2.5,2-5.3,0.5-7.4
			c-2-2.9-4.3,1.1-6.7,0.5c-2.5-0.8-3.1-3-3.7-5.2c-0.7-3.4,5.6-2.6,4-6.5c1.2-1.4,3-0.8,4.5-1.1c0,0,0.1,0,0.1,0
			c0.6,1.4,1.8,1.6,3.1,1.5c0,0,0,0,0,0C251.3,195.2,253.8,198.9,256.3,202.6z"/>
		<path class="st8" d="M326.6,187.7c4.3-0.6,7.9,1.1,11.2,3.5c5,3.8,7.1,9.3,5.4,15.1c-1.7,5.6-6.7,8.1-12.6,8.1
			c3.8-4.5,7.5-9,4.7-16.6c-1.3,2.8-3.7,3-5.5,4.2c-3.8-1.3-3.4-4.9-4.2-7.8C329.6,192.6,333.3,191,326.6,187.7z"/>
		<path class="st138" d="M240.8,202.8c2.3,0.5,4.7-3.5,6.7-0.5c1.4,2.1,0.3,4.9-0.5,7.4c-1,3.1-3.4,5-5.8,6.9
			c-5.3,0-10.6-0.1-15.9-0.1c-0.5-0.2-0.9-0.2-1.4-0.1c0,0,0,0.1,0,0.1c-3-5.4-7.2-10.6-3.6-17.4c1.5,2.8,3.4,1,5.1,0.3
			c-1,6.3-0.2,11.9,7.6,12.5C238.6,212.2,241.4,208.7,240.8,202.8z"/>
		<path class="st138" d="M329.8,202c1.8-1.2,4.2-1.4,5.5-4.2c2.8,7.6-0.9,12.1-4.7,16.6c-5.2,0.3-10.4,0.6-15.6,0.8
			c-3.9-2.8-8.1-5.4-7.6-11.1c2.1-0.8,2-6.3,6.1-3.1c-0.4,5.4,2.3,8.6,7.4,9C326.4,210.5,328.6,206.6,329.8,202z"/>
		<path class="st8" d="M307.4,204.1c-0.4,5.7,3.7,8.4,7.6,11.1c-6.9,1.1-15.8-3.4-16.6-8.5c-1.3-8.6,3.5-15.3,12.6-17.1
			C309.1,194.3,305.5,198.5,307.4,204.1z"/>
		<path class="st8" d="M220.2,199c-3.6,6.8,0.6,12,3.6,17.4c-2.6,0-5.3,0.1-7.9,0.1c-6.9-14.6-6.9-14.7,2.4-24.5
			c0.5-0.5,0.5-1.4,0.7-2.1c0,0-0.1,0-0.1,0c1.8,0.1,3.6,0,4.9-1.5c1,0,1.9,0,2.9,0c0.5,0,1,0.1,1.5,0.1c0,0.4,0,0.8,0,1.2
			C224.5,191.8,221.4,194.6,220.2,199z"/>
		<path class="st139" d="M307.4,204.1c-1.9-5.6,1.7-9.8,3.7-14.4c0,0-0.2,0.1-0.2,0.1c1.6,0.1,3.1-0.1,4.1-1.7l0.4,0.2
			c0,0,0.3-0.4,0.3-0.4c0.5,0,0.9-0.1,1.3-0.3c3.2,0,6.4,0.1,9.7,0.1c6.7,3.3,3,4.9-1,6.5c-5.7-0.6-10.1,0.9-12,6.8
			C309.4,197.8,309.5,203.3,307.4,204.1z"/>
		<path class="st8" d="M219.1,189.9c-0.2,0.7-0.3,1.6-0.7,2.1c-9.3,9.8-9.3,9.9-2.4,24.5c-6.9-2.3-8.8-8-7.6-14.1
			C209.5,196.8,210.3,189.6,219.1,189.9z"/>
		<path class="st8" d="M256.3,202.6c-2.5-3.7-5-7.3-7.6-11C255.7,192.2,257.8,196.1,256.3,202.6z"/>
		<path class="st134" d="M240.8,202.8c0.6,5.9-2.2,9.4-7.9,9c-7.7-0.5-8.6-6.1-7.6-12.5c3.9-0.5,7.2-5.8,11.8-1.7
			C237.7,199.8,238.3,202,240.8,202.8z"/>
		<path class="st139" d="M237.1,197.6c-4.6-4-7.8,1.2-11.8,1.7c-1.8,0.7-3.6,2.5-5.1-0.3c1.2-4.4,4.3-7.2,8.2-9.3
			c4.3-0.3,8.6-0.2,12.7,1.4C242.6,195,236.4,194.2,237.1,197.6z"/>
		<path class="st134" d="M313.5,201.1c1.9-6,6.4-7.5,12-6.8c0.9,2.9,0.5,6.5,4.2,7.8c-1.2,4.6-3.4,8.5-8.8,8
			C315.8,209.6,313.1,206.4,313.5,201.1z"/>
		<path class="st137" d="M215.1,173.8c5-0.9,10-1.9,15.2-1.6c12.4-0.8,24.7-1.6,37.1-2.4c4.6-0.3,8.4,5-0.1,5
			c-12.4-0.1-24.8,0.1-37.2,0.4c-14.4,1.1-28,3.5-30.8,17.3C198.1,180.1,201.7,176.3,215.1,173.8z"/>
	</g>
	<g>
		<g>
			<path class="st141" d="M232.8,283.1c0,0,38.4,31.4,90.7,0C323.5,283.1,276.2,360.3,232.8,283.1z"/>
			<g>
				<defs>
					<path id="SVGID_72_" d="M232.8,283.1c0,0,38.2,24.6,90.7,0C323.5,283.1,276.2,360.3,232.8,283.1z"/>
				</defs>
				<clipPath id="SVGID_4_">
					<use xlink:href="#SVGID_72_"  style="overflow:visible;"/>
				</clipPath>
				<linearGradient id="SVGID_5_" gradientUnits="userSpaceOnUse" x1="240.8543" y1="302.228" x2="314.4218" y2="302.228">
					<stop  offset="0" style="stop-color:#D1D1D1"/>
					<stop  offset="0.2342" style="stop-color:#FFFFFF"/>
					<stop  offset="0.7592" style="stop-color:#FFFFFF"/>
					<stop  offset="1" style="stop-color:#D1D1D1"/>
				</linearGradient>
				<rect x="240.9" y="285.5" style="clip-path:url(#SVGID_4_);fill:url(#SVGID_5_);" width="73.6" height="33.5"/>
			</g>
			<path class="st143" d="M275.6,318.2c-0.2,0-0.4,0-0.7,0c-15.6-0.3-30-12-42.7-34.7c0,0-0.4-1.2-0.1-1.3c0.3-0.2,1.2,0.3,1.2,0.3
				c0.4,0.3,38.9,15.9,89.8-0.1c0,0,0.6-0.5,1.1-0.3c0.5,0.3,0,1.4,0,1.4C324,283.9,302.6,318.2,275.6,318.2z M235.3,285.8
				c12,20.1,25.3,24,39.6,24.3c0.2,0,0.4,0,0.6,0c21.6,0,39.6-16.4,45.4-24.6c-27.1,12.3-48.2,12-62.6,8.5
				C247.3,291.3,239.4,288.5,235.3,285.8z"/>
		</g>
		<path class="st144" d="M277.7,303.2c-21.8,0-37.6-12.5-37.8-12.7l0-0.6c0.3,0.3,38.1,28.2,76.1-0.7v0.3
			C301,299.8,289.1,303.2,277.7,303.2z"/>
	</g>
	<g class="st47">
		<g class="st149">
			<g>
				<g>
					<path class="st134" d="M199.5,117.7c0,0-26.9,25.5-11.9,67.3C187.6,184.9,181.1,140.7,199.5,117.7z"/>
					<path class="st134" d="M197.6,116.7c0,0-22.1,29.8-0.1,68.3C197.5,185.1,183.4,142.6,197.6,116.7z"/>
					<path class="st134" d="M204.5,116.7c0,0-26.9,25.5-11.9,67.3C192.6,183.9,186.1,139.7,204.5,116.7z"/>
					<path class="st134" d="M202.6,115.7c0,0-22.1,29.8-0.1,68.3C202.5,184.1,188.4,141.6,202.6,115.7z"/>
				</g>
				<g>
					<path class="st134" d="M200,116.2c0,0-23.2,29-2.6,68.3C197.4,184.4,184.9,141.5,200,116.2z"/>
					<path class="st134" d="M198,115.5c0,0-17.8,32.5,9.3,67.7C207.2,183.2,187.5,143.1,198,115.5z"/>
					<path class="st134" d="M204.8,114.5c0,0-23.2,29-2.6,68.3C202.2,182.8,189.7,139.8,204.8,114.5z"/>
					<path class="st134" d="M202.8,113.9c0,0-17.8,32.5,9.3,67.7C212,181.5,192.3,141.4,202.8,113.9z"/>
				</g>
				<g>
					<path class="st134" d="M207.8,115.3c0,0-25.5,26.9-8.3,67.8C199.5,183.1,190.6,139.2,207.8,115.3z"/>
					<path class="st134" d="M205.8,114.5c0,0-20.5,30.9,3.6,68.2C209.3,182.7,193,141,205.8,114.5z"/>
					<path class="st134" d="M212.7,114c0,0-25.5,26.9-8.3,67.8C204.4,181.8,195.5,138,212.7,114z"/>
					<path class="st134" d="M210.7,113.2c0,0-20.5,30.9,3.6,68.2C214.3,181.4,197.9,139.8,210.7,113.2z"/>
				</g>
				<g>
					<path class="st134" d="M219.5,112.7c0,0-26.9,25.5-11.9,67.3C207.6,179.9,201.1,135.7,219.5,112.7z"/>
					<path class="st134" d="M217.6,111.7c0,0-22.1,29.8-0.1,68.3C217.5,180.1,203.4,137.6,217.6,111.7z"/>
					<path class="st134" d="M224.5,111.7c0,0-26.9,25.5-11.9,67.3C212.6,178.9,206.1,134.7,224.5,111.7z"/>
					<path class="st134" d="M222.6,110.7c0,0-22.1,29.8-0.1,68.3C222.5,179.1,208.4,136.6,222.6,110.7z"/>
				</g>
				<g>
					<path class="st134" d="M220,111.2c0,0-23.2,29-2.6,68.3C217.4,179.4,204.9,136.5,220,111.2z"/>
					<path class="st134" d="M218,110.5c0,0-17.8,32.5,9.3,67.7C227.2,178.2,207.5,138.1,218,110.5z"/>
					<path class="st134" d="M224.8,109.5c0,0-23.2,29-2.6,68.3C222.2,177.8,209.7,134.8,224.8,109.5z"/>
					<path class="st134" d="M222.8,108.9c0,0-17.8,32.5,9.3,67.7C232,176.5,212.3,136.4,222.8,108.9z"/>
				</g>
				<g>
					<path class="st134" d="M227.8,110.3c0,0-25.5,26.9-8.3,67.8C219.5,178.1,210.6,134.2,227.8,110.3z"/>
					<path class="st134" d="M225.8,109.5c0,0-20.5,30.9,3.6,68.2C229.3,177.7,213,136,225.8,109.5z"/>
					<path class="st134" d="M232.7,109c0,0-25.5,26.9-8.3,67.8C224.4,176.8,215.5,133,232.7,109z"/>
					<path class="st134" d="M230.7,108.2c0,0-20.5,30.9,3.6,68.2C234.3,176.4,217.9,134.8,230.7,108.2z"/>
				</g>
			</g>
			<g>
				<g>
					<path class="st134" d="M227.7,109.7c0,0-24.8,25.5-13.2,69.9C214.6,179.6,210.5,132.9,227.7,109.7z"/>
					<path class="st134" d="M226.1,108.6c0,0-20.7,30.2-2.8,71.5C223.3,180.2,212.5,135,226.1,108.6z"/>
					<path class="st134" d="M232.2,108.9c0,0-24.8,25.5-13.2,69.9C219,178.8,215,132.1,232.2,108.9z"/>
					<path class="st134" d="M230.5,107.8c0,0-20.7,30.2-2.8,71.5C227.8,179.4,217,134.2,230.5,107.8z"/>
				</g>
				<g>
					<path class="st134" d="M228.2,108.2c0,0-21.6,29.3-4.9,71.4C223.3,179.5,213.8,134,228.2,108.2z"/>
					<path class="st134" d="M226.4,107.4c0,0-17,33.3,5.6,71.3C232,178.7,216,135.8,226.4,107.4z"/>
					<path class="st134" d="M232.5,106.6c0,0-21.6,29.3-4.9,71.4C227.6,178,218.2,132.4,232.5,106.6z"/>
					<path class="st134" d="M230.8,105.9c0,0-17,33.3,5.6,71.3C236.3,177.2,220.4,134.2,230.8,105.9z"/>
				</g>
				<g>
					<path class="st134" d="M235.1,107.5c0,0-23.6,27-10,70.6C225.1,178.2,219,131.9,235.1,107.5z"/>
					<path class="st134" d="M233.4,106.6c0,0-19.3,31.5,0.5,71.6C233.9,178.2,221,133.8,233.4,106.6z"/>
					<path class="st134" d="M239.5,106.4c0,0-23.6,27-10,70.6C229.6,177.1,223.4,130.8,239.5,106.4z"/>
					<path class="st134" d="M237.8,105.5c0,0-19.3,31.5,0.5,71.6C238.3,177.1,225.5,132.7,237.8,105.5z"/>
				</g>
				<g>
					<path class="st134" d="M245.7,105.4c0,0-24.8,25.5-13.2,69.9C232.5,175.3,228.4,128.6,245.7,105.4z"/>
					<path class="st134" d="M244,104.3c0,0-20.7,30.2-2.8,71.5C241.2,175.9,230.4,130.7,244,104.3z"/>
					<path class="st134" d="M250.1,104.6c0,0-24.8,25.5-13.2,69.9C237,174.5,232.9,127.8,250.1,104.6z"/>
					<path class="st134" d="M248.4,103.5c0,0-20.7,30.2-2.8,71.5C245.7,175,234.9,129.9,248.4,103.5z"/>
				</g>
				<g>
					<path class="st134" d="M246.1,103.8c0,0-21.6,29.3-4.9,71.4C241.2,175.2,231.8,129.7,246.1,103.8z"/>
					<path class="st134" d="M244.3,103.1c0,0-17,33.3,5.6,71.3C249.9,174.4,234,131.4,244.3,103.1z"/>
					<path class="st134" d="M250.5,102.3c0,0-21.6,29.3-4.9,71.4C245.5,173.7,236.1,128.1,250.5,102.3z"/>
					<path class="st134" d="M248.7,101.5c0,0-17,33.3,5.6,71.3C254.2,172.9,238.3,129.9,248.7,101.5z"/>
				</g>
				<g>
					<path class="st134" d="M253,103.2c0,0-23.6,27-10,70.6C243.1,173.9,236.9,127.5,253,103.2z"/>
					<path class="st134" d="M251.3,102.3c0,0-19.3,31.5,0.5,71.6C251.8,173.9,239,129.5,251.3,102.3z"/>
					<path class="st134" d="M257.5,102.1c0,0-23.6,27-10,70.6C247.5,172.8,241.3,126.4,257.5,102.1z"/>
					<path class="st134" d="M255.7,101.2c0,0-19.3,31.5,0.5,71.6C256.2,172.8,243.4,128.4,255.7,101.2z"/>
				</g>
			</g>
			<g>
				<g>
					<path class="st134" d="M253,107.4c0,0-25.8,24.5-15.9,69.3C237.1,176.8,234.8,130,253,107.4z"/>
					<path class="st134" d="M251.3,106.3c0,0-21.9,29.3-5.6,71.4C245.8,177.7,236.7,132.2,251.3,106.3z"/>
					<path class="st134" d="M257.5,106.8c0,0-25.8,24.5-15.9,69.3C241.6,176.1,239.3,129.4,257.5,106.8z"/>
					<path class="st134" d="M255.8,105.7c0,0-21.9,29.3-5.6,71.4C250.3,177.1,241.2,131.6,255.8,105.7z"/>
				</g>
				<g>
					<path class="st134" d="M253.5,105.9c0,0-22.8,28.4-7.7,71.1C245.8,177.1,238.1,131.2,253.5,105.9z"/>
					<path class="st134" d="M251.7,105.1c0,0-18.3,32.6,2.8,71.5C254.5,176.6,240.3,133,251.7,105.1z"/>
					<path class="st134" d="M257.9,104.6c0,0-22.8,28.4-7.7,71.1C250.1,175.7,242.5,129.8,257.9,104.6z"/>
					<path class="st134" d="M256.1,103.7c0,0-18.3,32.6,2.8,71.5C258.9,175.2,244.6,131.7,256.1,103.7z"/>
				</g>
				<g>
					<path class="st134" d="M260.4,105.6c0,0-24.7,26.1-12.7,70.2C247.7,175.8,243.3,129.3,260.4,105.6z"/>
					<path class="st134" d="M258.7,104.6c0,0-20.5,30.7-2.3,71.6C256.4,176.2,245.3,131.3,258.7,104.6z"/>
					<path class="st134" d="M264.9,104.7c0,0-24.7,26.1-12.7,70.2C252.1,174.9,247.8,128.3,264.9,104.7z"/>
					<path class="st134" d="M263.2,103.7c0,0-20.5,30.7-2.3,71.6C260.9,175.2,249.8,130.4,263.2,103.7z"/>
				</g>
				<g>
					<path class="st134" d="M271,103.8c0,0-25.8,24.5-15.9,69.3C255.1,173.2,252.9,126.4,271,103.8z"/>
					<path class="st134" d="M269.4,102.7c0,0-21.9,29.3-5.6,71.4C263.8,174.1,254.8,128.6,269.4,102.7z"/>
					<path class="st134" d="M275.5,103.2c0,0-25.8,24.5-15.9,69.3C259.6,172.5,257.4,125.7,275.5,103.2z"/>
					<path class="st134" d="M273.9,102.1c0,0-21.9,29.3-5.6,71.4C268.3,173.5,259.3,127.9,273.9,102.1z"/>
				</g>
				<g>
					<path class="st134" d="M271.6,102.3c0,0-22.8,28.4-7.7,71.1C263.8,173.5,256.2,127.6,271.6,102.3z"/>
					<path class="st134" d="M269.8,101.5c0,0-18.3,32.6,2.8,71.5C272.6,173,258.3,129.4,269.8,101.5z"/>
					<path class="st134" d="M275.9,101c0,0-22.8,28.4-7.7,71.1C268.2,172.1,260.6,126.2,275.9,101z"/>
					<path class="st134" d="M274.2,100.1c0,0-18.3,32.6,2.8,71.5C277,171.6,262.7,128.1,274.2,100.1z"/>
				</g>
				<g>
					<path class="st134" d="M278.5,102c0,0-24.7,26.1-12.7,70.2C265.8,172.2,261.4,125.6,278.5,102z"/>
					<path class="st134" d="M276.8,101c0,0-20.5,30.7-2.3,71.6C274.5,172.6,263.4,127.7,276.8,101z"/>
					<path class="st134" d="M282.9,101.1c0,0-24.7,26.1-12.7,70.2C270.2,171.3,265.9,124.7,282.9,101.1z"/>
					<path class="st134" d="M281.3,100.1c0,0-20.5,30.7-2.3,71.6C279,171.6,267.9,126.8,281.3,100.1z"/>
				</g>
			</g>
		</g>
		<g class="st149">
			<g>
				<g>
					<path class="st134" d="M441,117.7c0,0,26.9,25.5,11.9,67.3C452.9,184.9,459.4,140.7,441,117.7z"/>
					<path class="st134" d="M442.9,116.7c0,0,22.1,29.8,0.1,68.3C443,185.1,457.1,142.6,442.9,116.7z"/>
					<path class="st134" d="M436,116.7c0,0,26.9,25.5,11.9,67.3C447.9,183.9,454.4,139.7,436,116.7z"/>
					<path class="st134" d="M437.9,115.7c0,0,22.1,29.8,0.1,68.3C438,184.1,452.1,141.6,437.9,115.7z"/>
				</g>
				<g>
					<path class="st134" d="M440.5,116.2c0,0,23.2,29,2.6,68.3C443.1,184.4,455.6,141.5,440.5,116.2z"/>
					<path class="st134" d="M442.6,115.5c0,0,17.8,32.5-9.3,67.7C433.3,183.2,453.1,143.1,442.6,115.5z"/>
					<path class="st134" d="M435.7,114.5c0,0,23.2,29,2.6,68.3C438.3,182.8,450.8,139.8,435.7,114.5z"/>
					<path class="st134" d="M437.8,113.9c0,0,17.8,32.5-9.3,67.7C428.5,181.5,448.3,141.4,437.8,113.9z"/>
				</g>
				<g>
					<path class="st134" d="M432.8,115.3c0,0,25.5,26.9,8.3,67.8C441.1,183.1,450,139.2,432.8,115.3z"/>
					<path class="st134" d="M434.8,114.5c0,0,20.5,30.9-3.6,68.2C431.2,182.7,447.5,141,434.8,114.5z"/>
					<path class="st134" d="M427.8,114c0,0,25.5,26.9,8.3,67.8C436.1,181.8,445,138,427.8,114z"/>
					<path class="st134" d="M429.8,113.2c0,0,20.5,30.9-3.6,68.2C426.3,181.4,442.6,139.8,429.8,113.2z"/>
				</g>
				<g>
					<path class="st134" d="M421,112.7c0,0,26.9,25.5,11.9,67.3C432.9,179.9,439.4,135.7,421,112.7z"/>
					<path class="st134" d="M422.9,111.7c0,0,22.1,29.8,0.1,68.3C423,180.1,437.1,137.6,422.9,111.7z"/>
					<path class="st134" d="M416,111.7c0,0,26.9,25.5,11.9,67.3C427.9,178.9,434.4,134.7,416,111.7z"/>
					<path class="st134" d="M417.9,110.7c0,0,22.1,29.8,0.1,68.3C418,179.1,432.1,136.6,417.9,110.7z"/>
				</g>
				<g>
					<path class="st134" d="M420.5,111.2c0,0,23.2,29,2.6,68.3C423.1,179.4,435.6,136.5,420.5,111.2z"/>
					<path class="st134" d="M422.6,110.5c0,0,17.8,32.5-9.3,67.7C413.3,178.2,433.1,138.1,422.6,110.5z"/>
					<path class="st134" d="M415.7,109.5c0,0,23.2,29,2.6,68.3C418.3,177.8,430.8,134.8,415.7,109.5z"/>
					<path class="st134" d="M417.8,108.9c0,0,17.8,32.5-9.3,67.7C408.5,176.5,428.3,136.4,417.8,108.9z"/>
				</g>
				<g>
					<path class="st134" d="M412.8,110.3c0,0,25.5,26.9,8.3,67.8C421.1,178.1,430,134.2,412.8,110.3z"/>
					<path class="st134" d="M414.8,109.5c0,0,20.5,30.9-3.6,68.2C411.2,177.7,427.5,136,414.8,109.5z"/>
					<path class="st134" d="M407.8,109c0,0,25.5,26.9,8.3,67.8C416.1,176.8,425,133,407.8,109z"/>
					<path class="st134" d="M409.8,108.2c0,0,20.5,30.9-3.6,68.2C406.3,176.4,422.6,134.8,409.8,108.2z"/>
				</g>
			</g>
			<g>
				<g>
					<path class="st134" d="M412.8,109.7c0,0,24.8,25.5,13.2,69.9C426,179.6,430,132.9,412.8,109.7z"/>
					<path class="st134" d="M414.5,108.6c0,0,20.7,30.2,2.8,71.5C417.2,180.2,428,135,414.5,108.6z"/>
					<path class="st134" d="M408.3,108.9c0,0,24.8,25.5,13.2,69.9C421.5,178.8,425.6,132.1,408.3,108.9z"/>
					<path class="st134" d="M410,107.8c0,0,20.7,30.2,2.8,71.5C412.8,179.4,423.6,134.2,410,107.8z"/>
				</g>
				<g>
					<path class="st134" d="M412.3,108.2c0,0,21.6,29.3,4.9,71.4C417.3,179.5,426.7,134,412.3,108.2z"/>
					<path class="st134" d="M414.1,107.4c0,0,17,33.3-5.6,71.3C408.6,178.7,424.5,135.8,414.1,107.4z"/>
					<path class="st134" d="M408,106.6c0,0,21.6,29.3,4.9,71.4C412.9,178,422.4,132.4,408,106.6z"/>
					<path class="st134" d="M409.8,105.9c0,0,17,33.3-5.6,71.3C404.2,177.2,420.2,134.2,409.8,105.9z"/>
				</g>
				<g>
					<path class="st134" d="M405.4,107.5c0,0,23.6,27,10,70.6C415.4,178.2,421.6,131.9,405.4,107.5z"/>
					<path class="st134" d="M407.1,106.6c0,0,19.3,31.5-0.5,71.6C406.6,178.2,419.5,133.8,407.1,106.6z"/>
					<path class="st134" d="M401,106.4c0,0,23.6,27,10,70.6C411,177.1,417.1,130.8,401,106.4z"/>
					<path class="st134" d="M402.7,105.5c0,0,19.3,31.5-0.5,71.6C402.2,177.1,415.1,132.7,402.7,105.5z"/>
				</g>
				<g>
					<path class="st134" d="M394.9,105.4c0,0,24.8,25.5,13.2,69.9C408.1,175.3,412.1,128.6,394.9,105.4z"/>
					<path class="st134" d="M396.6,104.3c0,0,20.7,30.2,2.8,71.5C399.3,175.9,410.1,130.7,396.6,104.3z"/>
					<path class="st134" d="M390.4,104.6c0,0,24.8,25.5,13.2,69.9C403.6,174.5,407.6,127.8,390.4,104.6z"/>
					<path class="st134" d="M392.1,103.5c0,0,20.7,30.2,2.8,71.5C394.8,175,405.7,129.9,392.1,103.5z"/>
				</g>
				<g>
					<path class="st134" d="M394.4,103.8c0,0,21.6,29.3,4.9,71.4C399.4,175.2,408.8,129.7,394.4,103.8z"/>
					<path class="st134" d="M396.2,103.1c0,0,17,33.3-5.6,71.3C390.6,174.4,406.6,131.4,396.2,103.1z"/>
					<path class="st134" d="M390.1,102.3c0,0,21.6,29.3,4.9,71.4C395,173.7,404.5,128.1,390.1,102.3z"/>
					<path class="st134" d="M391.9,101.5c0,0,17,33.3-5.6,71.3C386.3,172.9,402.3,129.9,391.9,101.5z"/>
				</g>
				<g>
					<path class="st134" d="M387.5,103.2c0,0,23.6,27,10,70.6C397.5,173.9,403.7,127.5,387.5,103.2z"/>
					<path class="st134" d="M389.2,102.3c0,0,19.3,31.5-0.5,71.6C388.7,173.9,401.6,129.5,389.2,102.3z"/>
					<path class="st134" d="M383.1,102.1c0,0,23.6,27,10,70.6C393.1,172.8,399.2,126.4,383.1,102.1z"/>
					<path class="st134" d="M384.8,101.2c0,0,19.3,31.5-0.5,71.6C384.3,172.8,397.2,128.4,384.8,101.2z"/>
				</g>
			</g>
			<g>
				<g>
					<path class="st134" d="M393,107.7c0,0,26.9,25.5,11.9,67.3C404.9,174.9,411.4,130.7,393,107.7z"/>
					<path class="st134" d="M394.9,106.7c0,0,22.1,29.8,0.1,68.3C395,175.1,409.1,132.6,394.9,106.7z"/>
					<path class="st134" d="M388,106.7c0,0,26.9,25.5,11.9,67.3C399.9,173.9,406.4,129.7,388,106.7z"/>
					<path class="st134" d="M389.9,105.7c0,0,22.1,29.8,0.1,68.3C390,174.1,404.1,131.6,389.9,105.7z"/>
				</g>
				<g>
					<path class="st134" d="M392.5,106.2c0,0,23.2,29,2.6,68.3C395.1,174.4,407.6,131.5,392.5,106.2z"/>
					<path class="st134" d="M394.6,105.5c0,0,17.8,32.5-9.3,67.7C385.3,173.2,405.1,133.1,394.6,105.5z"/>
					<path class="st134" d="M387.7,104.5c0,0,23.2,29,2.6,68.3C390.3,172.8,402.8,129.8,387.7,104.5z"/>
					<path class="st134" d="M389.8,103.9c0,0,17.8,32.5-9.3,67.7C380.5,171.5,400.3,131.4,389.8,103.9z"/>
				</g>
				<g>
					<path class="st134" d="M384.8,105.3c0,0,25.5,26.9,8.3,67.8C393.1,173.1,402,129.2,384.8,105.3z"/>
					<path class="st134" d="M386.8,104.5c0,0,20.5,30.9-3.6,68.2C383.2,172.7,399.5,131,386.8,104.5z"/>
					<path class="st134" d="M379.8,104c0,0,25.5,26.9,8.3,67.8C388.1,171.8,397,128,379.8,104z"/>
					<path class="st134" d="M381.8,103.2c0,0,20.5,30.9-3.6,68.2C378.3,171.4,394.6,129.8,381.8,103.2z"/>
				</g>
				<g>
					<path class="st134" d="M373,102.7c0,0,26.9,25.5,11.9,67.3C384.9,169.9,391.4,125.7,373,102.7z"/>
					<path class="st134" d="M374.9,101.7c0,0,22.1,29.8,0.1,68.3C375,170.1,389.1,127.6,374.9,101.7z"/>
					<path class="st134" d="M368,101.7c0,0,26.9,25.5,11.9,67.3C379.9,168.9,386.4,124.7,368,101.7z"/>
					<path class="st134" d="M369.9,100.7c0,0,22.1,29.8,0.1,68.3C370,169.1,384.1,126.6,369.9,100.7z"/>
				</g>
				<g>
					<path class="st134" d="M372.5,101.2c0,0,23.2,29,2.6,68.3C375.1,169.4,387.6,126.5,372.5,101.2z"/>
					<path class="st134" d="M374.6,100.5c0,0,17.8,32.5-9.3,67.7C365.3,168.2,385.1,128.1,374.6,100.5z"/>
					<path class="st134" d="M367.7,99.5c0,0,23.2,29,2.6,68.3C370.3,167.8,382.8,124.8,367.7,99.5z"/>
					<path class="st134" d="M369.8,98.9c0,0,17.8,32.5-9.3,67.7C360.5,166.5,380.3,126.4,369.8,98.9z"/>
				</g>
				<g>
					<path class="st134" d="M364.8,100.3c0,0,25.5,26.9,8.3,67.8C373.1,168.1,382,124.2,364.8,100.3z"/>
					<path class="st134" d="M366.8,99.5c0,0,20.5,30.9-3.6,68.2C363.2,167.7,379.5,126,366.8,99.5z"/>
					<path class="st134" d="M359.8,99c0,0,25.5,26.9,8.3,67.8C368.1,166.8,377,123,359.8,99z"/>
					<path class="st134" d="M361.8,98.2c0,0,20.5,30.9-3.6,68.2C358.3,166.4,374.6,124.8,361.8,98.2z"/>
				</g>
			</g>
			<g>
				<g>
					<path class="st134" d="M359.3,102c0,0,28.9,20.7,25.2,66.5C384.5,168.5,380.3,121.9,359.3,102z"/>
					<path class="st134" d="M360.7,100.7c0,0,25.7,26.1,15.2,70C376,170.6,378.7,124.3,360.7,100.7z"/>
					<path class="st134" d="M354.7,102c0,0,28.9,20.7,25.2,66.5C379.9,168.5,375.8,121.8,354.7,102z"/>
					<path class="st134" d="M356.2,100.6c0,0,25.7,26.1,15.2,70C371.4,170.6,374.2,124.3,356.2,100.6z"/>
				</g>
				<g>
					<path class="st134" d="M358.5,100.6c0,0,26.4,25,17.4,69.4C375.9,170,377.2,123.5,358.5,100.6z"/>
					<path class="st134" d="M360.2,99.5c0,0,22.6,29.8,7,71.2C367.2,170.7,375.4,125.6,360.2,99.5z"/>
					<path class="st134" d="M354,99.8c0,0,26.4,25,17.4,69.4C371.4,169.2,372.7,122.7,354,99.8z"/>
					<path class="st134" d="M355.6,98.7c0,0,22.6,29.8,7,71.2C362.6,169.9,370.8,124.9,355.6,98.7z"/>
				</g>
				<g>
					<path class="st134" d="M351.6,101.2c0,0,28,22.5,22.2,67.8C373.8,169,371.8,122.3,351.6,101.2z"/>
					<path class="st134" d="M353.2,99.9c0,0,24.5,27.6,12,70.6C365.2,170.5,370.1,124.6,353.2,99.9z"/>
					<path class="st134" d="M347.1,100.9c0,0,28,22.5,22.2,67.8C369.3,168.7,367.2,122,347.1,100.9z"/>
					<path class="st134" d="M348.6,99.6c0,0,24.5,27.6,12,70.6C360.7,170.2,365.5,124.3,348.6,99.6z"/>
				</g>
				<g>
					<path class="st134" d="M340.9,100.9c0,0,28.9,20.7,25.2,66.5C366.1,167.4,361.9,120.7,340.9,100.9z"/>
					<path class="st134" d="M342.3,99.5c0,0,25.7,26.1,15.2,70C357.6,169.5,360.3,123.2,342.3,99.5z"/>
					<path class="st134" d="M336.3,100.9c0,0,28.9,20.7,25.2,66.5C361.5,167.4,357.4,120.7,336.3,100.9z"/>
					<path class="st134" d="M337.8,99.5c0,0,25.7,26.1,15.2,70C353,169.5,355.8,123.2,337.8,99.5z"/>
				</g>
				<g>
					<path class="st134" d="M340.1,99.5c0,0,26.4,25,17.4,69.4C357.5,168.9,358.8,122.4,340.1,99.5z"/>
					<path class="st134" d="M341.8,98.4c0,0,22.6,29.8,7,71.2C348.8,169.6,357,124.5,341.8,98.4z"/>
					<path class="st134" d="M335.6,98.7c0,0,26.4,25,17.4,69.4C353,168.1,354.3,121.6,335.6,98.7z"/>
					<path class="st134" d="M337.2,97.6c0,0,22.6,29.8,7,71.2C344.2,168.8,352.4,123.7,337.2,97.6z"/>
				</g>
				<g>
					<path class="st134" d="M333.2,100.1c0,0,28,22.5,22.2,67.8C355.4,167.9,353.4,121.2,333.2,100.1z"/>
					<path class="st134" d="M334.8,98.8c0,0,24.5,27.6,12,70.6C346.8,169.4,351.7,123.5,334.8,98.8z"/>
					<path class="st134" d="M328.7,99.8c0,0,28,22.5,22.2,67.8C350.9,167.6,348.8,120.9,328.7,99.8z"/>
					<path class="st134" d="M330.2,98.5c0,0,24.5,27.6,12,70.6C342.3,169.1,347.1,123.2,330.2,98.5z"/>
				</g>
			</g>
		</g>
	</g>
	<path class="st145" d="M270.8,262.3c5,1.5,10.2,0.4,15.4-0.6c2.1-0.4,4.3-6.4,5.3-4.4c1.2,2.5-1.2,3.7-2.8,4.8
		c-6.2,4.1-12.7,6-19.8,2.1c-2.4-1.4-5.7-2.5-5.1-5.9C264.5,254.3,268.2,263.1,270.8,262.3z"/>
	<linearGradient id="SVGID_6_" gradientUnits="userSpaceOnUse" x1="90.695" y1="432.0822" x2="471.8955" y2="432.0822">
		<stop  offset="0" style="stop-color:#87613D"/>
		<stop  offset="1" style="stop-color:#A17448"/>
	</linearGradient>
	<path class="st3" d="M123.5,408.2c11.8-4.6,57.1-24.2,90.7-27.7c36.1,24.3,115.7,17.3,121-6.3c24,7.6,93.7,27.4,115.2,40.9
		c9.4,5.9,12.5,16.2,14.2,26.8c2.6,15.9,7.3,47.9,7.3,47.9l-381.2,0C90.7,489.9,100.1,421.4,123.5,408.2z"/>
	<path class="st151" d="M338.2,375.2c0,0-52.1,36-125,5.5c0,0-11,0-41.1,9.5s-39.7,14.6-39.7,14.6s16.5,20.9,21,85.2h254.7
		c0,0,1.7-74,18.5-85.9c0,0-17.6-7.4-42.2-15.5C359.8,380.6,338.2,375.2,338.2,375.2z"/>
	<path class="st152" d="M274.8,480c-21.5,0-36.5-17.1-53.5-47.9c-6.3-11.5-9.5-25-10.5-35.1c-1-10.1,2.1-19.1,2.1-19.6v3.1
		c0,0.2-5.1,18.3,6.9,43.5c9.2,19.4,33,46,54.9,46c12.1,0,37.3-7.8,52.7-46c9.6-23.8,10.8-47.3,10.8-47.6l-0.2-4.1
		c-0.2,1.2,2.1,3,0.6,16.1C335,421.6,311.7,480,274.8,480z"/>
	<linearGradient id="SVGID_7_" gradientUnits="userSpaceOnUse" x1="180.8157" y1="243" x2="185.8157" y2="243">
		<stop  offset="0" style="stop-color:#FFCA00"/>
		<stop  offset="0.7776" style="stop-color:#D6CA76"/>
	</linearGradient>
	<circle class="st7" cx="183.3" cy="243" r="2.5"/>
	<linearGradient id="SVGID_9_" gradientUnits="userSpaceOnUse" x1="361.8157" y1="243" x2="366.8157" y2="243">
		<stop  offset="0" style="stop-color:#FFCA00"/>
		<stop  offset="0.7776" style="stop-color:#D6CA76"/>
	</linearGradient>
	<circle style="fill:url(#SVGID_9_);" cx="364.3" cy="243" r="2.5"/>
	<g>
		<g>
			<path class="st134" d="M326,108.3c0,0-38.3,82.8-121.5,96.3C204.5,204.7,275.7,178.2,326,108.3z"/>
			<path class="st134" d="M318.8,119.9c0,0-47.5,76.1-131.4,76.4C187.4,196.3,261,181.3,318.8,119.9z"/>
			<path class="st134" d="M324.1,113.2c0,0-50.5,73.4-134.4,69.2C189.7,182.4,263.9,171.4,324.1,113.2z"/>
			<path class="st134" d="M315.2,123.1c0,0-58.4,64.8-141.1,47.5C174.2,170.6,248.9,171.3,315.2,123.1z"/>
		</g>
		<g>
			<path class="st134" d="M321.3,113.5c0,0-57.8,65.6-140.6,49.5C180.7,163,255.5,162.7,321.3,113.5z"/>
			<path class="st134" d="M311.5,122c0,0-64.8,56-145,27C166.5,149.1,240.6,160.4,311.5,122z"/>
			<path class="st134" d="M318.2,117.6c0,0-66.9,52.4-145.9,19C172.3,136.6,245.9,152,318.2,117.6z"/>
			<path class="st134" d="M307.3,123.9c0,0-66.3,44.6-140.7-0.8C166.5,123.1,231.6,146.7,307.3,123.9z"/>
		</g>
	</g>
	<g>
		<g>
			<path class="st134" d="M312.9,82.6c0,0-3.3,83.1,50.1,129.1C363,211.7,322.7,160.3,312.9,82.6z"/>
			<path class="st134" d="M313.8,94.9c0,0,5.6,81.5,64.3,117.2C378.1,212.1,331.9,169,313.8,94.9z"/>
			<path class="st134" d="M312.5,87.4c0,0,8.6,80.6,69,112.5C381.5,199.9,333.5,159.8,312.5,87.4z"/>
			<path class="st134" d="M315.1,99.1c0,0,17.4,77,81.6,97.8C396.7,196.8,344,166,315.1,99.1z"/>
		</g>
		<g>
			<path class="st134" d="M314.3,88.8c0,0,16.6,77.4,80.6,99.2C394.9,187.9,342.6,156.2,314.3,88.8z"/>
		</g>
	</g>
	<polygon class="st134" points="207.6,98.7 342.9,91.3 320.4,116.3 306.6,133.4 252.8,161.8 204.5,171.8 180.7,171.8 183.3,116 	"/>
	<polygon class="st134" points="321,81.5 355.9,99.3 369.4,147.1 343.8,142.5 326,117.9 311.5,97.3 	"/>
</g>
</svg>
