<?xml version="1.0" encoding="utf-8"?>
<!-- Generator: Adobe Illustrator 19.1.0, SVG Export Plug-In . SVG Version: 6.00 Build 0)  -->
<svg version="1.1" id="Layer_1" xmlns="http://www.w3.org/2000/svg" xmlns:xlink="http://www.w3.org/1999/xlink" x="0px" y="0px"
	 viewBox="0 0 535 489.9" style="enable-background:new 0 0 535 489.9;" xml:space="preserve">
<style type="text/css">
	.st0{fill:none;}
	.st1{fill:#522B1D;}
	.st2{fill:#D42222;}
	.st3{opacity:0.54;fill:#FF8845;}
	.st4{clip-path:url(#SVGID_2_);fill:url(#SVGID_3_);}
	.st5{fill:url(#SVGID_4_);}
	.st6{fill:url(#SVGID_5_);}
	.st7{fill:url(#SVGID_6_);}
	.st8{fill:#FBB03B;}
	.st9{fill:#743D29;}
	.st10{fill:#874C2D;}
	.st11{fill:url(#SVGID_7_);}
	.st12{fill:#FBFBFB;}
	.st13{fill:#A88171;}
	.st14{fill:#7A5757;}
	.st15{clip-path:url(#SVGID_9_);fill:url(#SVGID_10_);}
	.st16{fill:#AD6B6B;}
	.st17{opacity:0.62;fill:#7A5757;}
	.st18{fill:#FFD7B3;}
	.st19{fill:#4897D2;}
	.st20{fill:url(#SVGID_11_);}
	.st21{fill:url(#SVGID_12_);}
	.st22{fill:#4897D2;stroke:#86B2D2;stroke-width:10;stroke-miterlimit:10;}
	.st23{fill:#EAC79F;}
	.st24{fill:#378D58;}
	.st25{fill:#EBEBEA;}
	.st26{fill:#9E215C;}
	.st27{fill:#D9A183;}
	.st28{fill:#D4CDBD;}
	.st29{fill:#293139;}
	.st30{fill:url(#SVGID_13_);}
	.st31{fill:#690200;}
	.st32{opacity:0.4;fill:url(#SVGID_14_);}
	.st33{opacity:8.000000e-02;fill:#3D0100;}
	.st34{opacity:0.32;fill:#540200;}
	.st35{opacity:0.52;fill:#540200;}
	.st36{opacity:0.44;fill:#990300;}
	.st37{opacity:0.23;fill:#990300;}
	.st38{opacity:0.37;fill:#990300;}
	.st39{opacity:0.54;fill:#540200;}
	.st40{fill:#540200;}
	.st41{opacity:0.58;fill:#540200;}
	.st42{opacity:0.41;fill:#540200;}
	.st43{opacity:0.91;fill:#540200;}
	.st44{fill:#0B1821;}
	.st45{fill:#FFFFFF;}
	.st46{fill:#E4B48A;}
	.st47{clip-path:url(#SVGID_16_);fill:url(#SVGID_17_);}
	.st48{fill:#AD7B7B;}
	.st49{fill:#FCEE21;}
	.st50{fill:#4D4D4D;}
	.st51{display:none;}
	.st52{display:inline;fill:#4897D2;}
	.st53{fill:#D9B082;}
	.st54{fill:#A86247;}
	.st55{fill:url(#SVGID_18_);}
	.st56{fill:#C37F5B;}
	.st57{fill:#E8C3A4;}
	.st58{display:none;fill:#C37F5B;}
	.st59{fill:#06470E;}
	.st60{fill:#DC7F5B;}
	.st61{fill:url(#SVGID_19_);}
	.st62{fill:#100F10;}
	.st63{fill:url(#SVGID_20_);}
	.st64{display:none;fill:#A86247;}
	.st65{fill:#06770E;}
	.st66{fill:url(#SVGID_21_);}
	.st67{clip-path:url(#SVGID_23_);fill:url(#SVGID_24_);}
	.st68{fill:#AD3C7B;}
	.st69{fill:url(#SVGID_25_);}
	.st70{display:none;fill:#DC7F5B;}
	.st71{fill:url(#SVGID_26_);}
	.st72{fill:url(#SVGID_27_);}
	.st73{fill:url(#SVGID_28_);}
	.st74{clip-path:url(#SVGID_30_);fill:url(#SVGID_31_);}
	.st75{opacity:0.2;fill:#854D38;}
	.st76{opacity:0.38;fill:#854D38;}
	.st77{opacity:0.45;fill:#854D38;}
	.st78{opacity:0.25;fill:#854D38;}
	.st79{opacity:0.19;fill:#854D38;}
	.st80{opacity:0.13;fill:#854D38;}
	.st81{opacity:0.3;fill:#854D38;}
	.st82{opacity:0.64;fill:#C77454;}
	.st83{fill:url(#SVGID_32_);}
	.st84{fill:url(#SVGID_33_);}
	.st85{fill:#3D2C00;}
	.st86{fill:#533B31;}
	.st87{fill:#372117;}
	.st88{fill:#442C22;}
	.st89{fill:#2A170F;}
	.st90{fill:#301D15;}
	.st91{fill:#523691;}
	.st92{fill:#EBEFF0;}
	.st93{fill:#803B31;}
	.st94{clip-path:url(#SVGID_35_);fill:url(#SVGID_36_);}
	.st95{fill:#240569;}
	.st96{fill:#553D8C;}
	.st97{fill:url(#SVGID_37_);}
	.st98{fill:url(#SVGID_38_);}
	.st99{clip-path:url(#SVGID_40_);fill:url(#SVGID_41_);}
	.st100{fill:url(#SVGID_42_);}
	.st101{fill:url(#SVGID_43_);}
	.st102{fill:url(#SVGID_44_);}
	.st103{fill:#2E5961;}
	.st104{clip-path:url(#SVGID_46_);fill:url(#SVGID_47_);}
	.st105{fill:url(#SVGID_48_);}
	.st106{display:none;fill:#743D29;}
	.st107{fill:url(#SVGID_49_);}
	.st108{fill:#402416;}
	.st109{opacity:0.68;fill:#874C2D;}
	.st110{fill:#473333;}
	.st111{clip-path:url(#SVGID_51_);fill:url(#SVGID_52_);}
	.st112{fill:#96512E;}
	.st113{opacity:0.64;fill:#473333;}
	.st114{fill:url(#SVGID_53_);}
	.st115{fill:url(#SVGID_54_);}
	.st116{fill:#285778;}
	.st117{fill:#D9EFFF;}
	.st118{clip-path:url(#SVGID_56_);fill:url(#SVGID_57_);}
	.st119{clip-path:url(#SVGID_59_);}
	.st120{fill:url(#SVGID_60_);}
	.st121{fill:#E7B500;}
	.st122{fill:url(#SVGID_61_);}
	.st123{opacity:0.4;fill:url(#SVGID_62_);}
	.st124{fill:#EFCDB8;}
	.st125{opacity:0.4;fill:url(#SVGID_63_);}
	.st126{fill:#73B0FF;}
	.st127{fill:#4684D4;}
	.st128{fill:#2B170F;}
	.st129{fill:#CCA24F;}
	.st130{fill:url(#SVGID_64_);}
	.st131{fill:#EBBB5B;}
	.st132{opacity:0.3;fill:#C79F4D;}
	.st133{opacity:0.76;fill:#FFD582;}
	.st134{opacity:0.5;fill:#FFD582;}
	.st135{opacity:0.33;fill:#FFD582;}
	.st136{fill:#DBAB48;}
	.st137{fill:#D42D7B;}
	.st138{fill:#471400;}
	.st139{fill:url(#SVGID_65_);}
	.st140{fill:url(#SVGID_66_);}
	.st141{fill:#4A2517;}
	.st142{fill:#80472B;}
	.st143{fill:#6B3C24;}
	.st144{fill:#7E919E;}
	.st145{fill:#470E0E;}
	.st146{clip-path:url(#SVGID_68_);fill:url(#SVGID_69_);}
	.st147{fill:#800202;}
	.st148{opacity:0.39;fill:#800202;}
	.st149{opacity:0.44;fill:#6B3C24;}
	.st150{fill:url(#SVGID_70_);}
	.st151{fill:url(#SVGID_71_);}
	.st152{clip-path:url(#SVGID_73_);fill:url(#SVGID_74_);}
	.st153{display:inline;}
	.st154{fill:url(#SVGID_75_);}
	.st155{fill:#632F96;}
	.st156{fill:#D6CA76;}
	.st157{fill:url(#SVGID_76_);}
	.st158{fill:url(#SVGID_77_);}
	.st159{fill:#470000;}
	.st160{fill:url(#SVGID_78_);}
	.st161{fill:url(#SVGID_79_);}
	.st162{clip-path:url(#SVGID_81_);fill:url(#SVGID_82_);}
	.st163{fill:#A10043;}
	.st164{fill:#212121;}
	.st165{fill:url(#SVGID_83_);}
	.st166{fill:url(#SVGID_84_);}
	.st167{fill:url(#SVGID_85_);}
	.st168{fill:#704532;}
	.st169{fill:#59321E;}
	.st170{fill:#21110C;}
	.st171{clip-path:url(#SVGID_87_);fill:url(#SVGID_88_);}
	.st172{opacity:0.61;fill:#743D29;}
	.st173{opacity:0.24;fill:url(#SVGID_89_);}
	.st174{fill:url(#SVGID_90_);}
	.st175{fill:url(#SVGID_92_);}
	.st176{fill:#754312;}
	.st177{fill:url(#SVGID_93_);}
	.st178{clip-path:url(#SVGID_94_);fill:url(#SVGID_95_);}
	.st179{fill:#C78383;}
	.st180{opacity:0.36;fill:#743D29;}
	.st181{fill:#1B1464;}
	.st182{fill:#7A4613;}
	.st183{opacity:0.58;fill:#995818;}
	.st184{fill:#995818;}
	.st185{opacity:0.58;fill:#754312;}
	.st186{opacity:0.21;fill:#743D29;}
	.st187{fill:#1C1A19;}
	.st188{fill:url(#SVGID_97_);}
	.st189{fill:#A64521;}
	.st190{fill:url(#SVGID_98_);}
	.st191{fill:#71A88E;}
	.st192{fill:#84C4B0;}
	.st193{fill:#452418;}
	.st194{fill:#22A2D4;}
	.st195{clip-path:url(#SVGID_99_);fill:url(#SVGID_101_);}
	.st196{fill:#B87676;}
	.st197{fill:#F9BC93;}
	.st198{fill:none;stroke:#1C1A19;stroke-width:6;stroke-miterlimit:10;}
	.st199{fill:url(#SVGID_102_);}
	.st200{clip-path:url(#SVGID_103_);fill:url(#SVGID_105_);}
	.st201{fill:url(#SVGID_106_);}
	.st202{clip-path:url(#SVGID_107_);fill:url(#SVGID_109_);}
	.st203{fill:url(#SVGID_110_);}
	.st204{clip-path:url(#SVGID_111_);fill:url(#SVGID_113_);}
	.st205{fill:url(#SVGID_114_);}
	.st206{clip-path:url(#SVGID_115_);fill:url(#SVGID_117_);}
	.st207{fill:none;stroke:#000000;stroke-miterlimit:10;}
	.st208{fill:url(#SVGID_118_);}
	.st209{clip-path:url(#SVGID_119_);fill:url(#SVGID_121_);}
	.st210{fill:url(#SVGID_122_);}
	.st211{clip-path:url(#SVGID_123_);fill:url(#SVGID_125_);}
	.st212{fill:url(#SVGID_126_);}
	.st213{clip-path:url(#SVGID_127_);fill:url(#SVGID_129_);}
	.st214{fill:url(#SVGID_130_);}
	.st215{clip-path:url(#SVGID_131_);fill:url(#SVGID_133_);}
	.st216{fill:url(#SVGID_134_);}
	.st217{clip-path:url(#SVGID_135_);fill:url(#SVGID_136_);}
	.st218{fill:#381E1E;}
	.st219{fill:url(#SVGID_138_);}
	.st220{fill:#99725C;}
	.st221{fill:#804545;}
	.st222{fill:#593030;}
	.st223{fill:url(#SVGID_139_);}
	.st224{display:none;fill:#381E1E;}
	.st225{fill:#CF32AD;}
	.st226{clip-path:url(#SVGID_140_);fill:url(#SVGID_141_);}
	.st227{fill:url(#SVGID_142_);}
	.st228{fill:#312D2F;}
	.st229{fill:#343032;}
	.st230{fill:url(#SVGID_143_);}
	.st231{fill:url(#);}
	.st232{fill:url(#SVGID_144_);}
	.st233{fill:#945100;}
	.st234{fill:url(#SVGID_145_);}
	.st235{fill:#171F82;}
	.st236{fill:none;stroke:#121969;stroke-miterlimit:10;}
</style>
<pattern  x="-1819" y="-2059" width="3.2" height="2.4" patternUnits="userSpaceOnUse" id="New_Pattern_Swatch_2" viewBox="0 -2.4 3.2 2.4" style="overflow:visible;">
	<g>
		<polygon class="st0" points="0,0 3.2,0 3.2,-2.4 0,-2.4 		"/>
		<path class="st1" d="M1.8-1.1c0,0.5-0.4,0.8-0.8,0.8S0.2-0.6,0.2-1.1S0.6-1.9,1-1.9S1.8-1.5,1.8-1.1z"/>
		<path class="st1" d="M2.8-1.8c0,0.2-0.1,0.3-0.3,0.3S2.1-1.6,2.1-1.8s0.1-0.3,0.3-0.3S2.8-2,2.8-1.8z"/>
		<path class="st1" d="M3.1-0.6c0,0.3-0.2,0.5-0.5,0.5S2.1-0.4,2.1-0.6s0.2-0.5,0.5-0.5S3.1-0.9,3.1-0.6z"/>
		<polygon class="st0" points="3.2,0 0,0 0,-2.4 3.2,-2.4 		"/>
	</g>
</pattern>
<pattern  x="-1819" y="-2059" width="32.1" height="32.1" patternUnits="userSpaceOnUse" id="New_Pattern_Swatch_6" viewBox="0 -32.1 32.1 32.1" style="overflow:visible;">
	<g>
		<polygon class="st0" points="0,0 32.1,0 32.1,-32.1 0,-32.1 		"/>
		<g>
			<polygon class="st2" points="32.1,0 0,0 0,-32.1 32.1,-32.1 			"/>
		</g>
		<polygon class="st3" points="32.1,-12.7 0,-12.7 0,-20.2 32.1,-20.2 		"/>
	</g>
</pattern>
<g>
	<linearGradient id="SVGID_2_" gradientUnits="userSpaceOnUse" x1="273.7835" y1="303.9693" x2="273.7835" y2="449.7521">
		<stop  offset="0.433" style="stop-color:#AB8867"/>
		<stop  offset="0.7607" style="stop-color:#BA9470"/>
	</linearGradient>
	<path style="fill:url(#SVGID_2_);" d="M348.8,449.8H202c0,0,0-6.7,0-60.6c0-52.1-11.6-85.2-11.6-85.2l166.7,3.9
		c0,0-8.3,42.2-8.3,81.2S348.8,449.8,348.8,449.8z"/>
	<g>
		<path class="st1" d="M398.1,214.7c0,0,10.7-70.9,12.7-86.2c1.9-15.2-5-42.2-35.7-58C323.6,44,243.4,44.5,204.6,58
			c-12.8,4.5-55.2,27.1-53,81.8s4,73.5,4,73.5l8.6,35.3l150.3,23.1l78.2-34.7L398.1,214.7z"/>
		<linearGradient id="SVGID_3_" gradientUnits="userSpaceOnUse" x1="147.7475" y1="243.1624" x2="405.4882" y2="243.1624">
			<stop  offset="0" style="stop-color:#997450"/>
			<stop  offset="0.2733" style="stop-color:#B0855C"/>
			<stop  offset="0.6846" style="stop-color:#B0855C"/>
			<stop  offset="1" style="stop-color:#997450"/>
		</linearGradient>
		<path style="fill:url(#SVGID_3_);" d="M365.9,122.4c0,0-37.9-0.7-84.8-0.7c-40.7,0-99.3-24.3-98.7,17.8
			c0.6,42.1-10.8,103.4-10.8,103.4s-4.6-32.1-16-29.8s-14,38.9,17.4,67.3l0,0c0,0,2.1,21.6,18.8,38.1s46.8,42.8,51.2,46.6
			c4.4,3.8,36.6,10.2,58.4,3.3s58-49,61.4-53.8c3.4-4.8,13.3-19.1,12.5-32.4c0,0,48.2-51.5,22.8-67.5c-12.5-7.9-21.9,29.5-21.9,29.5
			s-10.4-49.2-5.2-73C376.2,147.3,378.7,128.1,365.9,122.4z"/>
	</g>
	<g>
		<path class="st1" d="M349,170.9c-4.9-1.3-9.8-2.6-15-2.7c-12.3-1.7-24.5-3.5-36.8-5.2c-4.5-0.6-8.9,12.4-0.5,13
			c12.3,0.8,24.7,2,37.1,3.2c14.3,2.2,25.6,0.7,29.7,11.5C365.5,178.5,362.2,174.4,349,170.9z"/>
		<path class="st12" d="M247.4,210.7c0.7,10.9-6.6,17.7-15.2,14c2.4-1.9,4.7-3.8,5.8-6.9c0.8-2.5,2-5.3,0.5-7.4
			c-2-2.9-4.3,1.1-6.7,0.5c-2.5-0.8-3.1-3-3.7-5.2c-0.7-3.4,5.6-2.6,4-6.5c1.2-1.4,3-0.8,4.5-1.1c0,0,0.1,0,0.1,0
			c0.6,1.4,1.8,1.6,3.1,1.5c0,0,0,0,0,0C242.3,203.3,244.8,207,247.4,210.7z"/>
		<path class="st12" d="M331.6,195.9c4.3-0.6,7.9,1.1,11.2,3.5c5,3.8,7.1,9.3,5.4,15.1c-1.7,5.6-6.7,8.1-12.6,8.1
			c3.8-4.5,7.5-9,4.7-16.6c-1.3,2.8-3.7,3-5.5,4.2c-3.8-1.3-3.4-4.9-4.2-7.8C334.6,200.8,338.3,199.1,331.6,195.9z"/>
		<path class="st168" d="M231.8,211c2.3,0.5,4.7-3.5,6.7-0.5c1.4,2.1,0.3,4.9-0.5,7.4c-1,3.1-3.4,5-5.8,6.9
			c-5.3,0-10.6-0.1-15.9-0.1c-0.5-0.2-0.9-0.2-1.4-0.1c0,0,0,0.1,0,0.1c-3-5.4-7.2-10.6-3.6-17.4c1.5,2.8,3.4,1,5.1,0.3
			c-1,6.3-0.2,11.9,7.6,12.5C229.6,220.3,232.5,216.8,231.8,211z"/>
		<path class="st168" d="M334.8,210.1c1.8-1.2,4.2-1.4,5.5-4.2c2.8,7.6-0.9,12.1-4.7,16.6c-5.2,0.3-10.4,0.6-15.6,0.8
			c-3.9-2.8-8.1-5.4-7.6-11.1c2.1-0.8,2-6.3,6.1-3.1c-0.4,5.4,2.3,8.6,7.4,9C331.5,218.6,333.6,214.7,334.8,210.1z"/>
		<path class="st12" d="M312.4,212.2c-0.4,5.7,3.7,8.4,7.6,11.1c-6.9,1.1-15.8-3.4-16.6-8.5c-1.3-8.6,3.5-15.3,12.6-17.1
			C314.1,202.4,310.5,206.6,312.4,212.2z"/>
		<path class="st12" d="M211.2,207.1c-3.6,6.8,0.6,12,3.6,17.4c-2.6,0-5.3,0.1-7.9,0.1c-6.9-14.6-6.9-14.7,2.4-24.5
			c0.5-0.5,0.5-1.4,0.7-2.1c0,0-0.1,0-0.1,0c1.8,0.1,3.6,0,4.9-1.5c1,0,1.9,0,2.9,0c0.5,0,1,0.1,1.5,0.1c0,0.4,0,0.8,0,1.2
			C215.5,199.9,212.5,202.7,211.2,207.1z"/>
		<path class="st169" d="M312.4,212.2c-1.9-5.6,1.7-9.8,3.7-14.4c0,0-0.2,0.1-0.2,0.1c1.6,0.1,3.1-0.1,4.1-1.7l0.4,0.2
			c0,0,0.3-0.4,0.3-0.4c0.5,0,0.9-0.1,1.3-0.3c3.2,0,6.4,0.1,9.7,0.1c6.7,3.3,3,4.9-1,6.5c-5.7-0.6-10.1,0.9-12,6.8
			C314.4,205.9,314.6,211.4,312.4,212.2z"/>
		<path class="st12" d="M210.1,198c-0.2,0.7-0.3,1.6-0.7,2.1c-9.3,9.8-9.3,9.9-2.4,24.5c-6.9-2.3-8.8-8-7.6-14.1
			C200.5,204.9,201.3,197.7,210.1,198z"/>
		<path class="st12" d="M247.4,210.7c-2.5-3.7-5-7.3-7.6-11C246.7,200.3,248.9,204.2,247.4,210.7z"/>
		<path class="st170" d="M231.8,211c0.6,5.9-2.2,9.4-7.9,9c-7.7-0.5-8.6-6.1-7.6-12.5c3.9-0.5,7.2-5.8,11.8-1.7
			C228.7,208,229.3,210.1,231.8,211z"/>
		<path class="st169" d="M228.1,205.7c-4.6-4-7.8,1.2-11.8,1.7c-1.8,0.7-3.6,2.5-5.1-0.3c1.2-4.4,4.3-7.2,8.2-9.3
			c4.3-0.3,8.6-0.2,12.7,1.4C233.7,203.1,227.4,202.3,228.1,205.7z"/>
		<path class="st170" d="M318.6,209.2c1.9-6,6.4-7.5,12-6.8c0.9,2.9,0.5,6.5,4.2,7.8c-1.2,4.6-3.4,8.5-8.8,8
			C320.8,217.7,318.2,214.5,318.6,209.2z"/>
		<path class="st1" d="M206.1,172.9c5-0.9,10-1.9,15.2-1.6c12.4-0.8,24.7-1.6,37.1-2.4c4.6-0.3,8.4,13-0.1,13
			c-12.4-0.1-24.8,0.1-37.2,0.4c-14.4,1.1-26-1.2-30.8,9.3C189.1,179.3,192.7,175.4,206.1,172.9z"/>
	</g>
	<g>
		<g>
			<path class="st14" d="M223.1,301.5c0,0,44.4,34.4,104.9,0C328,301.5,273.2,386.2,223.1,301.5z"/>
			<g>
				<defs>
					<path id="SVGID_86_" d="M223.1,301.5c0,0,44.2,27,104.9,0C328,301.5,273.2,386.2,223.1,301.5z"/>
				</defs>
				<clipPath id="SVGID_4_">
					<use xlink:href="#SVGID_86_"  style="overflow:visible;"/>
				</clipPath>
				<linearGradient id="SVGID_5_" gradientUnits="userSpaceOnUse" x1="232.3682" y1="322.5441" x2="317.4506" y2="322.5441">
					<stop  offset="0" style="stop-color:#D1D1D1"/>
					<stop  offset="0.2342" style="stop-color:#FFFFFF"/>
					<stop  offset="0.7592" style="stop-color:#FFFFFF"/>
					<stop  offset="1" style="stop-color:#D1D1D1"/>
				</linearGradient>
				<rect x="232.4" y="304.2" style="clip-path:url(#SVGID_4_);fill:url(#SVGID_5_);" width="85.1" height="36.7"/>
			</g>
			<path class="st16" d="M272.6,340.1c-0.3,0-0.5,0-0.8,0c-18.1-0.4-34.7-13.2-49.4-38.1c0,0-0.4-1.3-0.1-1.5
				c0.4-0.2,1.4,0.3,1.4,0.3c0.4,0.3,45,17.5,103.9-0.1c0,0,0.7-0.6,1.2-0.3c0.6,0.3,0,1.5,0,1.5
				C328.5,302.4,303.8,340.1,272.6,340.1z M226,304.6c13.8,22,29.2,26.3,45.8,26.6c0.2,0,0.5,0,0.7,0c25,0,45.8-18,52.5-27
				c-31.4,13.5-55.8,13.2-72.4,9.4C239.9,310.6,230.6,307.4,226,304.6z"/>
		</g>
		<path class="st17" d="M275.2,323.3c-24.8,0-42.9-12.5-43.1-12.7l0.1-0.6c0.4,0.3,42.8,28.2,86.8-0.7v0.3
			C302,319.9,288.2,323.3,275.2,323.3z"/>
	</g>
	<path class="st172" d="M255.7,260c-5.9,11.2-0.6,17.2,7.6,18.2c8.7,1.1,17.3-4.4,25.8,0.4c2,1.1,5.8-2.6,6.6-4.4
		c1.2-2.5-0.2-7.2-1.1-11.5c1.6,4.7,3.8,8.1,1.9,12.3c-1.7,3.7-5.9,5.2-8.9,4.2c-5.5-1.9-10.9,1.9-16.1,4.3
		c-6.7,3.1-18.7-4.9-20.3-14.7C250.1,261.8,252,260,255.7,260L255.7,260z"/>
	<pattern  id="SVGID_6_" xlink:href="#New_Pattern_Swatch_2" patternTransform="matrix(1 0 0 1 -29.8182 26.7232)">
	</pattern>
	<path style="opacity:0.24;fill:url(#SVGID_6_);" d="M378,232.7l-5.4-15.9c0,0-3.2,44.7-11.5,62.9c-56.1,15.2-139.6,5.4-161.1,2.5
		c0,0-23.5-39.3-25-66.6c-0.5-8.3-2.8,11.1-3.7,0l1.9,66.8c0,0,3.3,23.3,24.5,42.2c20.9,18.6,38.1,38.5,43,42.2
		c4.9,3.7,38.4,16.1,63.5,2.1c25.1-14.1,55.4-48.6,60.8-57.2c6-9.4,12-22,10-30L378,232.7z M273.2,342.4c-20,0-29.6-10.7-48.9-31.5
		c-5.1-7.2-4.5-10.5-3-11.9c50.8,16.5,93.9,5.4,111.4-0.8c0.6,2-0.2,5.8-4.3,12.3c-0.9,0.7-1.7,1.4-2.3,2.1
		C319.3,319.4,294.6,342.4,273.2,342.4z"/>
	<g>
		<path class="st1" d="M276.6,119c0,0,9.3,7.3,9.3,25.3c0,0,8.4-23.3,1.3-26.7C280.2,114.3,276.6,119,276.6,119z"/>
		<path class="st1" d="M284.5,119.7c0,0,9.7,12.4,11.4,30.3c0,0,6.4-30-1-32.7S284.5,119.7,284.5,119.7z"/>
		<path class="st1" d="M288.4,118.6c0,0,10.6,5.3,14.3,22.9c0,0,3.4-24.6-4.2-26.4S288.4,118.6,288.4,118.6z"/>
	</g>
	<g>
		<path class="st1" d="M295.2,121.9c0,0,10.6,5.4,14.1,23c0,0,3.6-24.5-4-26.4S295.2,121.9,295.2,121.9z"/>
		<path class="st1" d="M303.1,121c0,0,11.9,10.2,17.2,27.4c0,0,0.3-30.7-7.4-31.8S303.1,121,303.1,121z"/>
		<path class="st1" d="M306.7,119.2c0,0,11.4,3.1,18.6,19.6c0,0-1.5-24.8-9.3-25C308.1,113.5,306.7,119.2,306.7,119.2z"/>
	</g>
	<g>
		<path class="st1" d="M303.6,117c0,0,9.3,7.3,9.3,25.3c0,0,8.4-23.3,1.3-26.7C307.2,112.3,303.6,117,303.6,117z"/>
		<path class="st1" d="M311.5,117.7c0,0,9.7,12.4,11.4,30.3c0,0,6.4-30-1-32.7S311.5,117.7,311.5,117.7z"/>
		<path class="st1" d="M315.4,116.6c0,0,10.6,5.3,14.3,22.9c0,0,3.4-24.6-4.2-26.4S315.4,116.6,315.4,116.6z"/>
	</g>
	<g>
		<path class="st1" d="M322.2,119.9c0,0,10.6,5.4,14.1,23c0,0,3.6-24.5-4-26.4S322.2,119.9,322.2,119.9z"/>
		<path class="st1" d="M330.1,119c0,0,11.9,10.2,17.2,27.4c0,0,0.3-30.7-7.4-31.8S330.1,119,330.1,119z"/>
		<path class="st1" d="M333.7,117.2c0,0,11.4,3.1,18.6,19.6c0,0-1.5-24.8-9.3-25C335.1,111.5,333.7,117.2,333.7,117.2z"/>
	</g>
	<g>
		<path class="st1" d="M344.5,119.9c0,0,9.2,7.5,8.9,25.5c0,0,8.8-23.2,1.7-26.6C348.2,115.3,344.5,119.9,344.5,119.9z"/>
		<path class="st1" d="M352.5,120.8c0,0,9.5,12.5,10.9,30.5c0,0,6.9-29.9-0.5-32.7S352.5,120.8,352.5,120.8z"/>
		<path class="st1" d="M356.3,119.8c0,0,10.5,5.4,14,23.1c0,0,3.8-24.5-3.8-26.4S356.3,119.8,356.3,119.8z"/>
	</g>
	<g>
		<path class="st1" d="M348.5,118.9c0,0,9.2,7.5,8.9,25.5c0,0,8.8-23.2,1.7-26.6C352.2,114.3,348.5,118.9,348.5,118.9z"/>
		<path class="st1" d="M356.5,119.8c0,0,9.5,12.5,10.9,30.5c0,0,6.9-29.9-0.5-32.7S356.5,119.8,356.5,119.8z"/>
		<path class="st1" d="M360.3,118.8c0,0,10.5,5.4,14,23.1c0,0,3.8-24.5-3.8-26.4S360.3,118.8,360.3,118.8z"/>
	</g>
	<g>
		<path class="st1" d="M270.2,117c0,0-9.3,7.3-9.3,25.3c0,0-8.4-23.3-1.3-26.7C266.7,112.3,270.2,117,270.2,117z"/>
		<path class="st1" d="M262.3,117.7c0,0-9.7,12.4-11.4,30.3c0,0-6.4-30,1-32.7C259.3,112.7,262.3,117.7,262.3,117.7z"/>
		<path class="st1" d="M258.5,116.6c0,0-10.6,5.3-14.3,22.9c0,0-3.4-24.6,4.2-26.4C256,111.3,258.5,116.6,258.5,116.6z"/>
	</g>
	<g>
		<path class="st1" d="M289.2,121c0,0-9.3,7.3-9.3,25.3c0,0-8.4-23.3-1.3-26.7C285.7,116.3,289.2,121,289.2,121z"/>
		<path class="st1" d="M281.3,121.7c0,0-9.7,12.4-11.4,30.3c0,0-6.4-30,1-32.7S281.3,121.7,281.3,121.7z"/>
		<path class="st1" d="M277.5,120.6c0,0-10.6,5.3-14.3,22.9c0,0-3.4-24.6,4.2-26.4S277.5,120.6,277.5,120.6z"/>
	</g>
	<g>
		<path class="st1" d="M251.2,113c0,0-9.3,7.3-9.3,25.3c0,0-8.4-23.3-1.3-26.7C247.7,108.3,251.2,113,251.2,113z"/>
		<path class="st1" d="M243.3,113.7c0,0-9.7,12.4-11.4,30.3c0,0-6.4-30,1-32.7S243.3,113.7,243.3,113.7z"/>
		<path class="st1" d="M239.5,112.6c0,0-10.6,5.3-14.3,22.9c0,0-3.4-24.6,4.2-26.4C237,107.3,239.5,112.6,239.5,112.6z"/>
	</g>
	<g>
		<path class="st1" d="M232.6,115.9c0,0-10.6,5.4-14.1,23c0,0-3.6-24.5,4-26.4S232.6,115.9,232.6,115.9z"/>
		<path class="st1" d="M224.7,115c0,0-11.9,10.2-17.2,27.4c0,0-0.3-30.7,7.4-31.8C222.7,109.6,224.7,115,224.7,115z"/>
		<path class="st1" d="M221.1,113.2c0,0-11.4,3.1-18.6,19.6c0,0,1.5-24.8,9.3-25S221.1,113.2,221.1,113.2z"/>
	</g>
	<g>
		<path class="st1" d="M210.3,115.9c0,0-9.2,7.5-8.9,25.5c0,0-8.8-23.2-1.7-26.6C206.7,111.3,210.3,115.9,210.3,115.9z"/>
		<path class="st1" d="M202.4,116.8c0,0-9.5,12.5-10.9,30.5c0,0-6.9-29.9,0.5-32.7S202.4,116.8,202.4,116.8z"/>
		<path class="st1" d="M198.5,115.8c0,0-10.5,5.4-14,23.1c0,0-3.8-24.5,3.8-26.4C195.9,110.5,198.5,115.8,198.5,115.8z"/>
	</g>
	<g>
		<path class="st1" d="M206.3,114.9c0,0-9.2,7.5-8.9,25.5c0,0-8.8-23.2-1.7-26.6C202.7,110.3,206.3,114.9,206.3,114.9z"/>
		<path class="st1" d="M198.4,115.8c0,0-9.5,12.5-10.9,30.5c0,0-6.9-29.9,0.5-32.7S198.4,115.8,198.4,115.8z"/>
		<path class="st1" d="M194.5,114.8c0,0-10.5,5.4-14,23.1c0,0-3.8-24.5,3.8-26.4C191.9,109.5,194.5,114.8,194.5,114.8z"/>
	</g>
	<pattern  id="SVGID_7_" xlink:href="#New_Pattern_Swatch_6" patternTransform="matrix(1 0 0 1 -322.3067 224.9377)">
	</pattern>
	<path class="st11" d="M513.6,474.2c-2-11.4-5.7-22.5-16.9-28.8c-25.6-14.4-50.9-29.6-79.5-37.8l-68.3-24c0,0-19.8,31.3-75,31.3
		c-76.3,0-70.4-29.1-72-34c-4.6,2.2-58.3,24.1-91.4,37c-35.4,18-72.8,34.3-72.1,83.6c-1.7,13.1,482.4,13.8,478-11.6
		C515.5,484.6,514.6,479.4,513.6,474.2z"/>
</g>
</svg>
